<svg width="40" height="40" viewBox="0 0 40 40" fill="none" xmlns="http://www.w3.org/2000/svg">
<rect width="40" height="40" rx="11" fill="black"/>
<path d="M27.5308 16.7985C27.449 16.8458 25.5004 17.8451 25.5004 20.0608C25.5923 22.5877 27.9594 23.4739 28 23.4739C27.9594 23.5212 27.6426 24.6811 26.7043 25.8968C25.9596 26.9441 25.1331 28 23.878 28C22.6841 28 22.2555 27.302 20.878 27.302C19.3986 27.302 18.98 28 17.8474 28C16.5923 28 15.7045 26.8875 14.9192 25.8501C13.899 24.4923 13.0319 22.3614 13.0013 20.3154C12.9807 19.2313 13.2056 18.1655 13.7766 17.2603C14.5825 15.9966 16.0213 15.1387 17.5925 15.1104C18.7963 15.0729 19.8678 15.8742 20.6025 15.8742C21.3066 15.8742 22.6229 15.1104 24.1122 15.1104C24.7551 15.111 26.4694 15.29 27.5308 16.7985ZM20.5006 14.8939C20.2864 13.9038 20.878 12.9138 21.429 12.2822C22.1331 11.5184 23.2451 11 24.2041 11C24.2653 11.9901 23.8773 12.9611 23.1839 13.6683C22.5617 14.4321 21.4902 15.0071 20.5006 14.8939Z" fill="white"/>
</svg>
