<svg width="360" height="406" viewBox="0 0 360 406" fill="none" xmlns="http://www.w3.org/2000/svg">
<path d="M326.245 -46.3913C329.756 -56.1056 334.148 -70.3353 341.123 -78.1236C331.015 -85.733 318.403 -87.4181 306.392 -90.6411C290.129 -95.0048 273.888 -99.3922 257.651 -103.837C229.461 -111.554 199.834 -114.738 170.924 -118.433C146.239 -121.588 120.915 -122.581 96.0615 -118.802C77.6192 -115.998 61.4782 -105.678 45.2818 -95.986C12.2183 -76.2014 -14.163 -50.918 -27.5032 -11.7537C-42.2547 31.5543 -50.7605 77.1204 -61.1481 121.711C-73.7633 175.864 -87.9564 230.625 -93.5857 286.11C-97.0629 320.382 -97.0632 360.421 -79.1202 389.724C-69.4485 405.519 -45.3449 409.866 -30.014 401.421C-6.84665 388.658 7.59299 360.62 22.4047 338.711C30.405 326.877 39.8139 315.991 49.236 305.478C55.582 298.397 61.3766 289.907 68.8489 284.291C78.7713 276.833 88.1372 270.332 98.8752 264.264C109.68 258.158 121.083 251.167 132.664 247.159C159.602 237.837 188.946 235.872 214.296 221.395C238.087 207.809 257.855 188.751 271.99 163.71C286.705 137.641 295.832 110.58 301.804 80.8547C305.292 63.4974 306.904 53.3528 317.176 35.3021C327.448 17.2515 357.616 3.48724 359.903 -11.719C361.432 -21.8903 322.79 -36.8308 326.245 -46.3913Z" fill="#A5ED2E" fill-opacity="0.3"/>
</svg>
