<svg width="290" height="378" viewBox="0 0 290 378" fill="none" xmlns="http://www.w3.org/2000/svg">
<path d="M2.7863 371.619C2.40233 388.908 0.449025 406.411 0.54724 423.661C0.903297 428.94 3.21679 429.338 9.16064 430.759C10.9504 431.187 15.8657 432.111 17.0927 433.196C23.6556 439.001 28.1753 447.952 35.5919 453.559C41.6243 458.12 49.8881 460.705 57.278 461.323C73.2099 462.654 88.5591 468.28 104.463 469.906C160.103 475.593 214.98 467.56 269.633 457.65C330.465 446.62 387.142 429.64 440.304 397.281C484.256 370.528 525.917 341.103 554 296.543C579.358 256.307 587.206 206.367 578.102 159.678C574.848 142.989 570.786 123.773 561.727 109.139C552.45 94.1539 543.155 80.496 532.43 66.5307C517.262 46.778 502.216 28.0344 479.476 16.8489C462.518 8.50753 446.162 0.607394 426.81 0.462147C390.843 0.192176 352.805 5.08516 322.737 26.2445C310.398 34.9284 299.153 43.4158 288.54 54.249C276.016 67.0331 262.596 78.2556 251.741 92.6463C243.927 103.006 238.873 115.391 231.489 126.088C225.11 135.33 219.561 145.015 213.331 154.311C200.295 173.766 182.493 192.703 163.104 205.813C151.672 213.542 136.881 217.984 124.527 224.205C114.727 229.141 104.57 233.384 94.5614 237.868C85.5737 241.895 78.9609 247.577 71.0774 253.323C56.4138 264.01 44.2194 275.922 32.4931 289.735C22.3164 301.723 16.5963 314.389 11.5523 329.292C6.8988 343.041 3.11235 356.938 2.7863 371.619Z" fill="#E4FAC1"/>
</svg>
