<svg width="23" height="23" viewBox="0 0 23 23" fill="none" xmlns="http://www.w3.org/2000/svg">
<g id="camera-02">
<g id="Icon">
<path d="M1.9165 7.38071C1.9165 5.95073 3.07573 4.7915 4.50571 4.7915C5.24869 4.7915 5.90831 4.31607 6.14327 3.61122L6.229 3.354C6.26944 3.23271 6.28965 3.17206 6.31128 3.11826C6.58747 2.43125 7.23467 1.96477 7.97376 1.92001C8.03164 1.9165 8.09557 1.9165 8.22343 1.9165H14.7762C14.9041 1.9165 14.968 1.9165 15.0259 1.92001C15.765 1.96477 16.4122 2.43125 16.6884 3.11826C16.71 3.17206 16.7302 3.23271 16.7707 3.354L16.8564 3.61122C17.0914 4.31607 17.751 4.7915 18.494 4.7915C19.9239 4.7915 21.0832 5.95073 21.0832 7.38071V15.5248C21.0832 17.135 21.0832 17.9401 20.7698 18.5551C20.4942 19.096 20.0544 19.5358 19.5134 19.8115C18.8984 20.1248 18.0933 20.1248 16.4832 20.1248H6.5165C4.90635 20.1248 4.10128 20.1248 3.48628 19.8115C2.94532 19.5358 2.5055 19.096 2.22986 18.5551C1.9165 17.9401 1.9165 17.135 1.9165 15.5248V7.38071Z" fill="#C1C1C1"/>
<path d="M11.4998 15.8123C13.8816 15.8123 15.8123 13.8816 15.8123 11.4998C15.8123 9.11811 13.8816 7.18734 11.4998 7.18734C9.11811 7.18734 7.18734 9.11811 7.18734 11.4998C7.18734 13.8816 9.11811 15.8123 11.4998 15.8123Z" fill="#C1C1C1"/>
<path d="M1.9165 7.38071C1.9165 5.95073 3.07573 4.7915 4.50571 4.7915C5.24869 4.7915 5.90831 4.31607 6.14327 3.61122L6.229 3.354C6.26944 3.23271 6.28965 3.17206 6.31128 3.11826C6.58747 2.43125 7.23467 1.96477 7.97376 1.92001C8.03164 1.9165 8.09557 1.9165 8.22343 1.9165H14.7762C14.9041 1.9165 14.968 1.9165 15.0259 1.92001C15.765 1.96477 16.4122 2.43125 16.6884 3.11826C16.71 3.17206 16.7302 3.23271 16.7707 3.354L16.8564 3.61122C17.0914 4.31607 17.751 4.7915 18.494 4.7915C19.9239 4.7915 21.0832 5.95073 21.0832 7.38071V15.5248C21.0832 17.135 21.0832 17.9401 20.7698 18.5551C20.4942 19.096 20.0544 19.5358 19.5134 19.8115C18.8984 20.1248 18.0933 20.1248 16.4832 20.1248H6.5165C4.90635 20.1248 4.10128 20.1248 3.48628 19.8115C2.94532 19.5358 2.5055 19.096 2.22986 18.5551C1.9165 17.9401 1.9165 17.135 1.9165 15.5248V7.38071Z" stroke="white" stroke-linecap="round" stroke-linejoin="round"/>
<path d="M11.4998 15.8123C13.8816 15.8123 15.8123 13.8816 15.8123 11.4998C15.8123 9.11811 13.8816 7.18734 11.4998 7.18734C9.11811 7.18734 7.18734 9.11811 7.18734 11.4998C7.18734 13.8816 9.11811 15.8123 11.4998 15.8123Z" stroke="white" stroke-linecap="round" stroke-linejoin="round"/>
</g>
</g>
</svg>
