<svg width="75" height="76" viewBox="0 0 75 76" fill="none" xmlns="http://www.w3.org/2000/svg">
<g clip-path="url(#clip0_2285_32103)">
<rect width="75" height="75" transform="translate(0 0.5)" fill="white"/>
<path d="M36.7412 39.8294L51.6299 24.9408L44.4514 17.7381C39.8108 13.0975 33.7441 13.0008 29.2727 17.4481C24.8254 21.8712 24.8979 27.9862 29.5627 32.651L36.7412 39.8294ZM39.98 43.0924L47.1826 50.295C51.8474 54.9356 57.8899 55.0323 62.3855 50.585C66.8328 46.1619 66.7603 40.047 62.0955 35.3822L54.8928 28.1795L39.98 43.0924ZM7.35059 48.7965H33.1882C32.1731 42.6331 26.7832 37.8958 20.2815 37.8958C13.7556 37.8958 8.36572 42.6331 7.35059 48.7965ZM7.35059 53.1954C8.36572 59.4071 13.7314 64.1444 20.2815 64.1444C26.7832 64.1444 32.1489 59.3829 33.1882 53.1954H7.35059Z" fill="#A4ED2E"/>
</g>
<defs>
<clipPath id="clip0_2285_32103">
<rect width="75" height="75" fill="white" transform="translate(0 0.5)"/>
</clipPath>
</defs>
</svg>
