<svg width="28" height="44" viewBox="0 0 28 44" fill="none" xmlns="http://www.w3.org/2000/svg">
<path id="Vector" d="M3.45907 19.9833C3.47493 19.7899 3.3402 19.6126 3.14999 19.6045C2.38124 19.5562 0.590125 19.1451 0.233488 16.3405C0.233488 16.3405 -0.135037 13.6446 1.6957 12.4519C1.79873 12.3874 1.86213 12.2746 1.85817 12.1537C1.83043 11.2067 1.91761 7.10448 5.48002 6.79823C5.63456 6.78614 5.76137 6.67734 5.79307 6.52421C5.98328 5.54097 6.95412 2.12783 11.1862 3.01839C11.3328 3.05063 11.4834 2.98616 11.5547 2.84915C11.8836 2.22858 12.9496 0.544173 14.8675 0.435372C14.8675 0.435372 16.5199 0.044494 18.4695 1.6886C18.6003 1.80143 18.7905 1.80143 18.9173 1.68457C19.6623 0.983408 22.2975 -1.05964 25.6181 1.32593C25.634 1.33802 25.6498 1.35011 25.6657 1.36623C25.951 1.65233 29.026 4.86801 27.2587 8.44233C27.2587 8.44233 26.5018 10.7272 24.4056 11.6217C24.2114 11.7064 24.1361 11.9441 24.251 12.1214C25.0673 13.3988 27.441 18.0088 23.6725 23.8599C23.6646 23.876 23.6566 23.8881 23.6487 23.9042C23.5615 24.1016 22.979 25.5443 24.0965 26.4308C24.0965 26.4308 28.4792 31.9998 26.8228 36.8354C26.8228 36.8354 24.5799 44.8101 17.0866 43.6899C17.0747 43.6899 17.0668 43.6899 17.0549 43.6859C16.7934 43.6294 13.5004 42.8396 11.0515 38.9873C11.0515 38.9873 2.91223 26.5517 3.46304 19.9833H3.45907Z" fill="white" stroke="#A5ED2E" stroke-miterlimit="10"/>
</svg>
