<svg width="28" height="44" viewBox="0 0 28 44" fill="none" xmlns="http://www.w3.org/2000/svg">
<g id="&#235;&#176;&#156;&#235;&#176;&#148;&#235;&#139;&#165;" clip-path="url(#clip0_1409_5133)">
<path id="Vector" d="M3.45907 19.9833C3.47493 19.7899 3.3402 19.6126 3.14999 19.6045C2.38124 19.5562 0.590125 19.1451 0.233488 16.3405C0.233488 16.3405 -0.135037 13.6446 1.6957 12.4519C1.79873 12.3874 1.86213 12.2746 1.85817 12.1537C1.83043 11.2067 1.91761 7.10448 5.48002 6.79823C5.63456 6.78614 5.76137 6.67734 5.79307 6.52421C5.98328 5.54097 6.95412 2.12783 11.1862 3.01839C11.3328 3.05063 11.4834 2.98616 11.5547 2.84915C11.8836 2.22858 12.9496 0.544173 14.8675 0.435372C14.8675 0.435372 16.5199 0.044494 18.4695 1.6886C18.6003 1.80143 18.7905 1.80143 18.9173 1.68457C19.6623 0.983408 22.2975 -1.05964 25.6181 1.32593C25.634 1.33802 25.6498 1.35011 25.6657 1.36623C25.951 1.65233 29.026 4.86801 27.2587 8.44233C27.2587 8.44233 26.5018 10.7272 24.4056 11.6217C24.2114 11.7064 24.1361 11.9441 24.251 12.1214C25.0673 13.3988 27.441 18.0088 23.6725 23.8599C23.6646 23.876 23.6566 23.8881 23.6487 23.9042C23.5615 24.1016 22.979 25.5443 24.0965 26.4308C24.0965 26.4308 28.4792 31.9998 26.8228 36.8354C26.8228 36.8354 24.5799 44.8101 17.0866 43.6899C17.0747 43.6899 17.0668 43.6899 17.0549 43.6859C16.7934 43.6294 13.5004 42.8396 11.0515 38.9873C11.0515 38.9873 2.91223 26.5517 3.46304 19.9833H3.45907Z" fill="white" stroke="#A5ED2E" stroke-miterlimit="10"/>
<path id="Vector_2" d="M3.70527 17.5535C4.62225 17.5535 5.36561 16.7308 5.36561 15.7159C5.36561 14.7011 4.62225 13.8784 3.70527 13.8784C2.78828 13.8784 2.04492 14.7011 2.04492 15.7159C2.04492 16.7308 2.78828 17.5535 3.70527 17.5535Z" fill="#A5ED2E"/>
<path id="Vector_3" d="M5.8564 13.5758C7.02943 13.5758 7.98037 12.5258 7.98037 11.2305C7.98037 9.93527 7.02943 8.88525 5.8564 8.88525C4.68336 8.88525 3.73242 9.93527 3.73242 11.2305C3.73242 12.5258 4.68336 13.5758 5.8564 13.5758Z" fill="#A5ED2E"/>
<path id="Vector_4" d="M9.85858 10.2513C11.1542 10.2513 12.2045 9.04975 12.2045 7.56755C12.2045 6.08535 11.1542 4.88379 9.85858 4.88379C8.56298 4.88379 7.5127 6.08535 7.5127 7.56755C7.5127 9.04975 8.56298 10.2513 9.85858 10.2513Z" fill="#A5ED2E"/>
<path id="Vector_5" d="M15.4579 8.41801C16.9307 8.41801 18.1247 7.08655 18.1247 5.44411C18.1247 3.80167 16.9307 2.47021 15.4579 2.47021C13.985 2.47021 12.791 3.80167 12.791 5.44411C12.791 7.08655 13.985 8.41801 15.4579 8.41801Z" fill="#A5ED2E"/>
<path id="Vector_6" d="M22.4764 10.018C24.3651 10.018 25.8962 8.295 25.8962 6.16963C25.8962 4.04425 24.3651 2.32129 22.4764 2.32129C20.5877 2.32129 19.0566 4.04425 19.0566 6.16963C19.0566 8.295 20.5877 10.018 22.4764 10.018Z" fill="#A5ED2E"/>
<path id="Vector_7" d="M5.36529 19.0322C5.36529 19.0322 6.37973 11.2469 15.4581 9.78414C15.4581 9.78414 21.8855 8.72031 23.5221 15.3733C23.5221 15.3733 25.1587 18.1014 21.9846 23.3238C21.9846 23.3238 20.9939 25.6651 22.5196 27.5953C22.5196 27.5953 25.9235 31.7982 25.1587 35.6587C25.1587 35.6587 24.8298 40.2041 19.3772 41.6266C19.3772 41.6266 16.8015 42.2029 14.4041 39.918C14.4041 39.918 5.7457 30.0897 5.36133 19.0322H5.36529Z" fill="#A5ED2E"/>
</g>
<defs>
<clipPath id="clip0_1409_5133">
<rect width="28" height="44" fill="white"/>
</clipPath>
</defs>
</svg>
