<svg width="28" height="44" viewBox="0 0 28 44" fill="none" xmlns="http://www.w3.org/2000/svg">
<g clip-path="url(#clip0_54_2848)">
<path d="M11.7736 40.9011H20.941C21.215 40.9011 21.4341 40.6065 21.4341 40.2383V36.9735C21.4341 36.8814 21.4478 36.7894 21.4752 36.7096L23.4109 30.7875C23.4383 30.7077 23.452 30.628 23.452 30.542L23.5799 24.4113V23.8406C23.5799 23.7301 23.5981 23.6258 23.6392 23.5276L26.689 15.8688C26.7163 15.8013 26.7346 15.7277 26.7437 15.654L26.8898 14.3653C26.8944 14.3101 26.899 14.2548 26.8898 14.1935L26.794 12.9968C26.794 12.9968 26.7163 9.5847 24.0547 11.0207C24.0547 11.0207 23.1918 11.0698 21.0552 18.2438C21.0552 18.2499 21.0415 18.2499 21.046 18.2438L23.0092 10.5236C23.0183 10.4807 23.0274 10.4439 23.032 10.4009C23.0868 9.8179 23.4246 5.43005 20.9136 5.90259C20.9136 5.90259 19.6581 5.8044 18.8044 7.65159C18.7724 7.72523 18.7496 7.80501 18.7359 7.89093L17.3252 17.851C17.3206 17.8879 17.2841 17.8817 17.2841 17.8449L17.6219 7.61477C17.6219 7.57795 17.6219 7.54113 17.6219 7.5043C17.5763 7.0379 17.1882 3.68718 15.3894 3.87742C15.3894 3.87742 13.303 3.71173 12.8191 6.44877C12.8099 6.51013 12.8054 6.57764 12.8054 6.64514L13.1432 17.4337L11.349 9.28399C11.349 9.28399 10.4313 5.33186 8.24447 6.90289C8.24447 6.90289 6.62373 7.96457 6.88853 10.2475L9.14843 23.6258L8.80146 23.8283L8.34491 23.8038C8.2536 23.8038 8.17142 23.7608 8.09381 23.6933L4.99386 20.9501C4.95734 20.9195 4.92081 20.8949 4.88429 20.8765C4.53275 20.7169 2.70656 19.9744 1.7889 21.2079C1.7889 21.2079 0.0175031 23.4908 2.19066 25.516L5.57824 28.744C5.57824 28.744 5.61933 28.7869 5.63759 28.8115L6.92962 30.5114L8.85168 33.3098C8.85168 33.3098 8.8882 33.3589 8.91103 33.3834L10.6048 35.1631C10.7053 35.2674 10.7737 35.4208 10.792 35.5927L11.2942 40.3303C11.3307 40.6556 11.5362 40.9011 11.7827 40.9011H11.7736Z" fill="#A5ED2E"/>
<path d="M12.1891 40.9011H20.4662C21.0004 40.9011 21.4341 40.3181 21.4341 39.6001V37.1085C21.4341 36.9305 21.4615 36.7464 21.5163 36.5869L23.3744 30.9041C23.4247 30.7507 23.4521 30.585 23.4566 30.4193L23.5845 24.4175V24.0125C23.5845 23.7977 23.6255 23.589 23.6986 23.3988L26.6525 15.9793C26.7027 15.8504 26.7392 15.7093 26.7575 15.562L26.8807 14.4635C26.8944 14.353 26.8944 14.2426 26.8853 14.1321L26.7985 13.0152C26.7985 13.0152 26.7209 9.60312 24.0593 11.0391C24.0593 11.0391 23.1781 11.0882 20.9913 18.4893L22.9955 10.6096C23.0183 10.5237 23.032 10.4377 23.0412 10.3457C23.1097 9.52948 23.3379 5.46689 20.9182 5.92715C20.9182 5.92715 19.7084 5.8351 18.8546 7.57183C18.7862 7.71297 18.7451 7.87253 18.7222 8.03209L17.3526 17.6915C17.3435 17.7406 17.2887 17.7345 17.2932 17.6792L17.622 7.69456C17.622 7.61478 17.622 7.535 17.6128 7.45523C17.5398 6.79245 17.1152 3.71788 15.3894 3.89585C15.3894 3.89585 13.3487 3.73629 12.8328 6.37514C12.81 6.49788 12.8008 6.63289 12.8054 6.75562L13.1387 17.4583L11.3399 9.30242C11.3399 9.30242 10.4222 5.35029 8.23537 6.92132C8.23537 6.92132 6.61462 7.983 6.87942 10.2659L9.13933 23.6442L8.79235 23.8468L8.4682 23.8283C8.29472 23.8161 8.12123 23.7424 7.97513 23.6136L5.03497 21.0177C4.96193 20.9563 4.88431 20.9011 4.80214 20.8642C4.32733 20.6617 2.64267 20.0603 1.77523 21.2263C1.77523 21.2263 0.00383135 23.5092 2.17699 25.5344L5.53261 28.7317C5.5737 28.7746 5.61479 28.8176 5.65131 28.8667L6.91595 30.5359L8.81061 33.2975C8.84714 33.3466 8.88366 33.3957 8.92475 33.4387L10.4405 35.0281C10.6368 35.2368 10.7692 35.5375 10.8057 35.875L11.2212 39.8087C11.2897 40.4531 11.7006 40.9256 12.1799 40.9256L12.1891 40.9011Z" stroke="white" stroke-width="1.35" stroke-linejoin="round"/>
<path d="M12.1895 41.7726C11.3905 41.7726 10.7011 40.9687 10.587 39.907L10.1715 35.9733C10.1578 35.8628 10.1168 35.7647 10.0528 35.691L8.5371 34.1077C8.46405 34.0341 8.40014 33.9543 8.34079 33.8684L6.44612 31.1068L5.20431 29.4682L5.16779 29.4253L1.81217 26.228C0.981256 25.4547 0.524709 24.5219 0.465358 23.4725C0.369483 21.877 1.24149 20.711 1.33736 20.5821C1.79847 19.9623 2.46047 19.6431 3.29595 19.6431C4.01272 19.6431 4.67472 19.8763 5.00343 20.0175C5.14039 20.0789 5.27279 20.1586 5.39606 20.2691C5.39606 20.2691 8.34992 22.8773 8.35905 22.8834L6.25437 10.4379C5.98044 8.07518 7.24964 6.58392 7.95729 6.11752C8.37274 5.81681 8.80646 5.65726 9.22649 5.65726C11.1622 5.65726 11.9292 8.8791 11.9658 9.02025L12.2808 10.444L12.1666 6.77416C12.1575 6.5471 12.1758 6.33231 12.2169 6.13593C12.6688 3.82848 14.1207 3.00614 15.3305 3.00614C15.3533 3.00614 15.3716 3.00614 15.3853 3.00614C15.4401 3.00614 15.4903 3 15.5405 3C17.1841 3 18.015 5.17245 18.2524 7.22829C18.2752 7.17306 18.2981 7.11783 18.3255 7.06873C19.2705 5.1479 20.6173 5.03743 20.8867 5.03743C21.0237 5.01289 21.156 5.00061 21.2884 5.00061C21.9733 5.00061 22.5576 5.332 22.9731 5.9641C23.804 7.21602 23.7766 9.29027 23.7036 10.266C23.7812 10.2108 23.8497 10.1863 23.909 10.1678C24.3884 9.92237 24.8358 9.79963 25.233 9.79963C26.7944 9.79963 27.4107 11.6652 27.4518 12.9356L27.5386 14.0218C27.5523 14.212 27.5477 14.4023 27.5294 14.5802L27.4062 15.6787C27.3788 15.9181 27.3194 16.1513 27.2327 16.3722L24.2788 23.7917C24.256 23.853 24.2423 23.9267 24.2423 23.9942V24.3992L24.1145 30.4256C24.1099 30.7079 24.0643 30.9779 23.9775 31.2357L22.1194 36.9184C22.1011 36.9736 22.092 37.035 22.092 37.0902V39.5818C22.092 40.7785 21.3661 41.7542 20.4758 41.7542H12.1986L12.1895 41.7726Z" stroke="#A5ED2E" stroke-width="1.35" stroke-linejoin="round"/>
</g>
<defs>
<clipPath id="clip0_54_2848">
<rect width="28" height="44" fill="white"/>
</clipPath>
</defs>
</svg>
