<svg width="36" height="38" viewBox="0 0 36 38" fill="none" xmlns="http://www.w3.org/2000/svg">
<path id="Vector" d="M14.9791 37.5148H27.4206C27.7924 37.5148 28.0898 37.2203 28.0898 36.852V33.5872C28.0898 33.4952 28.1084 33.4031 28.1455 33.3233L30.7726 27.4013C30.8098 27.3215 30.8284 27.2417 30.8284 27.1558L31.0019 21.0251V20.4544C31.0019 20.3439 31.0267 20.2396 31.0824 20.1414L35.2213 12.4826C35.2585 12.4151 35.2833 12.3415 35.2957 12.2678L35.494 10.9791C35.5002 10.9238 35.5064 10.8686 35.494 10.8072L35.3639 9.61056C35.3639 9.61056 35.2585 6.19847 31.6463 7.63449C31.6463 7.63449 30.4752 7.68358 27.5755 14.8576C27.5755 14.8637 27.5569 14.8637 27.5631 14.8576L30.2274 7.1374C30.2398 7.09445 30.2522 7.05762 30.2584 7.01467C30.3327 6.43167 30.7912 2.04382 27.3834 2.51635C27.3834 2.51635 25.6795 2.41817 24.5209 4.26536C24.4775 4.339 24.4465 4.41878 24.4279 4.50469L22.5134 14.4648C22.5072 14.5016 22.4576 14.4955 22.4576 14.4587L22.9161 4.22854C22.9161 4.19172 22.9161 4.15489 22.9161 4.11807C22.8542 3.65167 22.3275 0.300951 19.8863 0.491194C19.8863 0.491194 17.0547 0.325498 16.3979 3.06253C16.3855 3.1239 16.3793 3.19141 16.3793 3.25891L16.8379 14.0475L14.4028 5.89776C14.4028 5.89776 13.1574 1.94563 10.1896 3.51666C10.1896 3.51666 7.98998 4.57834 8.34935 6.86125L11.4164 20.2396L10.9455 20.4421L10.3259 20.4176C10.2019 20.4176 10.0904 20.3746 9.98509 20.3071L5.77801 17.5639C5.72844 17.5332 5.67887 17.5087 5.62931 17.4903C5.15222 17.3307 2.67382 16.5882 1.42843 17.8217C1.42843 17.8217 -0.975618 20.1046 1.97367 22.1297L6.5711 25.3577C6.5711 25.3577 6.62686 25.4007 6.65164 25.4252L8.40511 27.1251L11.0136 29.9235C11.0136 29.9235 11.0632 29.9726 11.0942 29.9972L13.3929 31.7769C13.5292 31.8812 13.6221 32.0346 13.6469 32.2064L14.3285 36.9441C14.378 37.2694 14.6569 37.5148 14.9914 37.5148H14.9791Z" fill="#A5ED2E"/>
</svg>
