<svg width="20" height="20" viewBox="0 0 20 20" fill="none" xmlns="http://www.w3.org/2000/svg">
<path d="M10 18.3337C9.07957 18.3337 8.33337 17.5875 8.33337 16.667H11.6667C11.6667 17.5875 10.9205 18.3337 10 18.3337ZM16.6667 14.8036C16.6667 15.3725 16.2055 15.8337 15.6367 15.8337H4.36343C3.79455 15.8337 3.33337 15.3725 3.33337 14.8036C3.33337 14.4134 3.55381 14.0568 3.90278 13.8823L5.00004 13.3337V8.75033C5.00004 5.86533 6.18421 3.99449 8.33337 3.48366V3.33366C8.33337 2.41318 9.07957 1.66699 10 1.66699C10.9205 1.66699 11.6667 2.41318 11.6667 3.33366V3.48366C13.8159 3.99366 15 5.86366 15 8.75033V13.3337L16.0973 13.8823C16.4463 14.0568 16.6667 14.4134 16.6667 14.8036ZM10 4.79199C8.9831 4.72633 8.00236 5.18139 7.39587 6.00033C6.87716 6.82079 6.62266 7.78064 6.66671 8.75033V14.167H13.3334V8.75033C13.3774 7.78065 13.1229 6.82081 12.6042 6.00033C11.9977 5.18139 11.017 4.72633 10 4.79199Z" fill="#D4D3D4"/>
</svg>
