<svg width="45" height="44" viewBox="0 0 45 44" fill="none" xmlns="http://www.w3.org/2000/svg">
<mask id="mask0_1_395" style="mask-type:alpha" x="0" y="0" width="45" height="44">
<rect x="0.5" width="44" height="44" rx="16" fill="#F9E000"/>
</mask>
<g mask="url(#mask0_1_395)">
<path d="M0.5 16C0.5 7.16344 7.66344 0 16.5 0H28.5C37.3366 0 44.5 7.16344 44.5 16V28C44.5 36.8366 37.3366 44 28.5 44H16.5C7.66344 44 0.5 36.8366 0.5 28V16Z" fill="#F9E000"/>
<path fill-rule="evenodd" clip-rule="evenodd" d="M23.0511 14.7931C18.6331 14.7931 15.0517 17.8547 15.0517 21.6357C15.0517 24.0658 16.5364 26.195 18.7639 27.4131L18.0094 30.461C17.9816 30.5525 18.0048 30.654 18.0661 30.7204C18.1101 30.768 18.1679 30.7931 18.2293 30.7931C18.2779 30.7931 18.3265 30.7718 18.3693 30.7355L21.6105 28.3643C22.0814 28.4383 22.5617 28.4784 23.0511 28.4784C27.468 28.4784 31.0517 25.4167 31.0517 21.6357C31.0517 17.8547 27.468 14.7931 23.0511 14.7931Z" fill="#583F28"/>
</g>
</svg>
