<svg width="45" height="44" viewBox="0 0 45 44" fill="none" xmlns="http://www.w3.org/2000/svg">
<mask id="mask0_1269_4299" style="mask-type:alpha" maskUnits="userSpaceOnUse" x="0" y="0" width="45" height="44">
<rect x="0.5" width="44" height="44" rx="16" fill="#111111"/>
</mask>
<g mask="url(#mask0_1269_4299)">
<path d="M0.5 16C0.5 7.16344 7.66344 0 16.5 0H28.5C37.3366 0 44.5 7.16344 44.5 16V28C44.5 36.8366 37.3366 44 28.5 44H16.5C7.66344 44 0.5 36.8366 0.5 28V16Z" fill="#111111"/>
<path fill-rule="evenodd" clip-rule="evenodd" d="M27.3169 21.0856C27.2964 18.7794 29.2051 17.6581 29.2923 17.6058C28.2113 16.0294 26.5355 15.8147 25.9468 15.7972C24.5396 15.6485 23.1748 16.6393 22.4579 16.6393C21.7266 16.6393 20.622 15.8116 19.4325 15.8359C17.9016 15.8594 16.4693 16.7455 15.6842 18.1224C14.0622 20.9285 15.2715 25.0531 16.8251 27.3222C17.602 28.4343 18.51 29.6739 19.698 29.6307C20.8602 29.5829 21.2949 28.8895 22.6984 28.8895C24.0882 28.8895 24.4956 29.6307 25.7078 29.6018C26.9558 29.5829 27.7409 28.4859 28.4912 27.3647C29.3887 26.0925 29.7498 24.8369 29.7634 24.7725C29.7353 24.7634 27.3411 23.8492 27.3169 21.0856Z" fill="white"/>
<path fill-rule="evenodd" clip-rule="evenodd" d="M25.0273 14.3047C25.6524 13.5226 26.0802 12.459 25.9619 11.3795C25.0569 11.4189 23.925 12.0053 23.2726 12.77C22.6968 13.4444 22.1817 14.549 22.3144 15.5875C23.331 15.6634 24.3749 15.0747 25.0273 14.3047Z" fill="white"/>
</g>
</svg>
