<svg width="47" height="50" viewBox="0 0 47 50" fill="none" xmlns="http://www.w3.org/2000/svg">
<path d="M46.0006 11.7441H22.3955C19.7342 11.7441 14.5503 13.4798 15.1058 20.4225L16.1472 49.5816M27.6026 49.5816C28.4126 45.7631 29.616 35.6963 27.9497 25.9766L46.0006 31.1836" stroke="#8DBE3D" stroke-width="1.8"/>
<circle cx="17.1311" cy="15.3303" r="6.73692" stroke="#8DBE3D" stroke-width="1.8"/>
<circle cx="17.132" cy="15.3302" r="8.33119" stroke="white" stroke-width="1.8"/>
<path d="M10.4785 0.999023C10.3289 1.46425 10.2276 1.98424 10.035 2.43353C9.85402 2.85591 9.8091 3.32051 9.68766 3.7577C9.65079 3.89042 9.65121 4.03394 9.5957 4.1623C9.52301 4.33041 9.53963 4.40484 9.72648 4.34622C10.1048 4.22751 10.4886 4.09475 10.8545 3.94161C11.1646 3.81178 11.5039 3.70381 11.8231 3.61261C11.8864 3.59452 11.8394 4.22698 11.8394 4.32374C11.8394 4.53843 11.8217 4.74294 11.8047 4.95517C11.7482 5.66105 11.7568 6.41476 11.6187 7.10489" stroke="#8DBE3D" stroke-width="1.8" stroke-linecap="round"/>
<path d="M4.7518 4.12444C4.90314 4.58909 5.12563 5.06988 5.23277 5.54681C5.3335 5.99517 5.56925 6.39801 5.72694 6.82348C5.77482 6.95264 5.85923 7.06871 5.88944 7.20526C5.929 7.38408 5.98608 7.43466 6.10317 7.27769C6.34028 6.95984 6.57355 6.62741 6.78033 6.28899C6.95564 6.00207 7.16734 5.71583 7.37259 5.45494C7.41331 5.40319 7.74575 5.94328 7.80243 6.02169C7.9282 6.19569 8.03361 6.37183 8.14417 6.55378C8.51192 7.15894 8.96038 7.76478 9.2528 8.40495" stroke="#8DBE3D" stroke-width="1.8" stroke-linecap="round"/>
<path d="M1.78893 11.7138C2.21385 11.9551 2.70221 12.1605 3.10274 12.4407C3.47929 12.7041 3.92493 12.8429 4.32813 13.051C4.45054 13.1142 4.59112 13.1431 4.70545 13.2236C4.85518 13.3291 4.93143 13.328 4.91218 13.1331C4.8732 12.7385 4.82157 12.3357 4.74632 11.9463C4.68252 11.6162 4.64607 11.262 4.62194 10.9309C4.61715 10.8653 5.22672 11.0403 5.32143 11.0601C5.53161 11.1039 5.72818 11.163 5.93248 11.223C6.61198 11.4223 7.35156 11.5678 7.999 11.8438" stroke="#8DBE3D" stroke-width="1.8" stroke-linecap="round"/>
</svg>
