<svg width="49" height="51" viewBox="0 0 49 51" fill="none" xmlns="http://www.w3.org/2000/svg">
<path d="M13.7085 25.0109L10.7039 10.8467H16.2838C17.4283 10.4175 18.8591 9.21571 15.4253 7.84221L3.83648 6.12535C2.40576 5.98228 0.0593773 6.64041 2.11962 10.4175C2.4058 10.8467 3.83657 11.7052 7.27026 11.7052L11.1332 25.0109M28.7311 27.5862L37.3154 9.98829H30.8772C29.4464 9.70215 27.4434 8.78648 30.8772 7.41299H42.0367L46.329 2.26239C47.0443 1.54703 48.3892 0.803059 48.0458 3.55004L43.7537 9.55908H40.7491L31.7356 28.8738M35.5985 46.4717H12.85C4.2657 45.0982 1.83346 38.7458 1.69039 35.7413C1.34701 28.1871 8.12863 25.7262 11.5624 25.4401C27.3575 24.7533 38.4599 32.0214 42.0367 35.7413C45.4705 43.2955 40.0337 46.0425 36.8862 46.4717H35.5985ZM35.5985 46.4717C35.4555 47.4732 35.6844 49.4762 37.7446 49.4762C38.46 49.4762 39.8049 48.7895 39.4615 46.0425M11.5624 46.4717C11.4194 47.4732 10.9615 49.4762 10.2748 49.4762C8.84405 49.7624 6.32598 49.7337 7.69948 47.3301L8.55791 45.6133" stroke="#8DBE3D" stroke-width="1.8"/>
<circle cx="13.7083" cy="36.1702" r="6.8259" stroke="#8DBE3D" stroke-width="1.8"/>
<path d="M14.9961 36.5997L24.0096 31.8783M24.0096 31.8783L22.2928 29.7322C22.0066 29.0169 21.9494 27.7579 24.0096 28.4446L27.8726 31.4491C28.3018 32.1645 28.4735 33.5952 25.7265 33.5952L24.0096 31.8783Z" stroke="#8DBE3D" stroke-width="1.8"/>
</svg>
