<svg width="234" height="87" viewBox="0 0 234 87" fill="none" xmlns="http://www.w3.org/2000/svg">
<path d="M5.58 79.5898C4.212 79.5898 3.24 79.3258 2.664 78.7978C2.112 78.2458 1.836 77.4418 1.836 76.3858C1.836 76.0738 1.848 75.5818 1.872 74.9098C1.92 74.2138 1.98 73.3978 2.052 72.4618C2.124 71.5258 2.196 70.5058 2.268 69.4018C2.364 68.2978 2.46 67.1698 2.556 66.0178C2.676 64.6018 2.772 63.3898 2.844 62.3818C2.94 61.3498 3.012 60.4738 3.06 59.7538C3.108 59.0098 3.144 58.3978 3.168 57.9178C3.216 57.4138 3.24 56.9818 3.24 56.6218C3.264 56.2378 3.276 55.8898 3.276 55.5778C3.3 55.2658 3.312 54.9298 3.312 54.5698C3.312 54.3778 3.372 54.2458 3.492 54.1738C3.612 54.0778 3.732 54.0298 3.852 54.0298C4.476 54.0298 5.16 54.0178 5.904 53.9938C6.648 53.9458 7.392 53.8978 8.136 53.8498C8.88 53.8018 9.6 53.7658 10.296 53.7418C10.992 53.6938 11.604 53.6698 12.132 53.6698C13.668 53.6698 14.988 53.8618 16.092 54.2458C17.196 54.6058 18.084 55.1458 18.756 55.8658C19.452 56.5618 19.956 57.4138 20.268 58.4218C20.604 59.4298 20.772 60.5818 20.772 61.8778C20.772 63.2938 20.58 64.6618 20.196 65.9818C19.836 67.2778 19.26 68.4298 18.468 69.4378C17.676 70.4458 16.656 71.2498 15.408 71.8498C14.16 72.4498 12.672 72.7498 10.944 72.7498C9.912 72.7498 9.036 72.6418 8.316 72.4258L7.812 79.0498C7.788 79.2418 7.74 79.3858 7.668 79.4818C7.596 79.5538 7.452 79.5898 7.236 79.5898H5.58ZM11.412 59.0698C11.1 59.0698 10.752 59.0938 10.368 59.1418C9.984 59.1658 9.576 59.2018 9.144 59.2498C9.096 60.2578 9.036 61.4818 8.964 62.9218C8.892 64.3618 8.796 65.8738 8.676 67.4578C9.036 67.5538 9.384 67.6258 9.72 67.6738C10.08 67.6978 10.404 67.7098 10.692 67.7098C11.532 67.7098 12.204 67.5178 12.708 67.1338C13.236 66.7258 13.644 66.2338 13.932 65.6578C14.22 65.0818 14.412 64.4818 14.508 63.8578C14.604 63.2338 14.652 62.6938 14.652 62.2378C14.652 61.2058 14.412 60.4258 13.932 59.8978C13.476 59.3458 12.636 59.0698 11.412 59.0698ZM170.802 79.5898C169.818 79.5898 169.086 79.4458 168.606 79.1578C168.126 78.8698 167.778 78.5098 167.562 78.0778C166.314 75.5098 165.138 73.0498 164.034 70.6978C162.954 68.3458 161.85 65.9698 160.722 63.5698C160.746 66.1618 160.782 68.7418 160.83 71.3098C160.878 73.8778 160.926 76.4578 160.974 79.0498C160.974 79.4098 160.782 79.5898 160.398 79.5898H158.418C157.05 79.5898 156.078 79.3258 155.502 78.7978C154.95 78.2458 154.674 77.4418 154.674 76.3858C154.674 76.0978 154.686 75.6178 154.71 74.9458C154.758 74.2498 154.818 73.4338 154.89 72.4978C154.962 71.5618 155.034 70.5418 155.106 69.4378C155.202 68.3098 155.298 67.1698 155.394 66.0178C155.538 64.1938 155.658 62.6818 155.754 61.4818C155.85 60.2818 155.922 59.2738 155.97 58.4578C156.042 57.6178 156.09 56.9098 156.114 56.3338C156.138 55.7338 156.162 55.1458 156.186 54.5698C156.186 54.2098 156.378 54.0298 156.762 54.0298H159.642C160.434 54.0298 161.082 54.1258 161.586 54.3178C162.09 54.4858 162.498 54.7258 162.81 55.0378C163.146 55.3498 163.41 55.7098 163.602 56.1178C163.794 56.5018 163.974 56.9098 164.142 57.3418C164.718 58.8298 165.222 60.1138 165.654 61.1938C166.11 62.2738 166.506 63.2218 166.842 64.0378C167.178 64.8538 167.466 65.5618 167.706 66.1618C167.97 66.7618 168.21 67.3138 168.426 67.8178C168.642 68.3218 168.858 68.8138 169.074 69.2938C169.29 69.7498 169.518 70.2538 169.758 70.8058C169.758 69.3898 169.746 67.9378 169.722 66.4498C169.722 64.9378 169.71 63.4738 169.686 62.0578C169.686 60.6178 169.674 59.2378 169.65 57.9178C169.65 56.5978 169.65 55.4098 169.65 54.3538C169.65 54.1378 169.854 54.0298 170.262 54.0298H172.242C173.034 54.0298 173.658 54.1138 174.114 54.2818C174.594 54.4258 174.966 54.6538 175.23 54.9658C175.494 55.2538 175.662 55.6138 175.734 56.0458C175.83 56.4778 175.878 56.9698 175.878 57.5218C175.878 58.1218 175.842 59.0458 175.77 60.2938C175.698 61.5178 175.614 62.8978 175.518 64.4338C175.422 65.9698 175.314 67.5658 175.194 69.2218C175.074 70.8538 174.954 72.3658 174.834 73.7578C174.738 75.1498 174.642 76.3378 174.546 77.3218C174.474 78.2818 174.426 78.8458 174.402 79.0138C174.402 79.2058 174.33 79.3498 174.186 79.4458C174.066 79.5418 173.922 79.5898 173.754 79.5898H170.802Z" fill="white"/>
<path d="M34.9921 75.1258C35.0641 74.3338 35.1361 73.5058 35.2081 72.6418C35.3041 71.7778 35.3761 70.9498 35.4241 70.1578C35.4961 69.3658 35.5561 68.6578 35.6041 68.0338C35.6521 67.4098 35.6761 66.9538 35.6761 66.6658C35.6761 66.0418 35.5201 65.4898 35.2081 65.0098C34.9201 64.5058 34.3441 64.2538 33.4801 64.2538C32.3281 64.2538 31.3921 64.7938 30.6721 65.8738C29.9761 66.9538 29.5681 68.3938 29.4481 70.1938C29.4001 70.6978 29.3401 71.4058 29.2681 72.3178C29.1961 73.2058 29.1241 74.1178 29.0521 75.0538C28.9801 75.9658 28.9081 76.7938 28.8361 77.5378C28.7881 78.2578 28.7641 78.7018 28.7641 78.8698C28.7641 79.1578 28.7041 79.3498 28.5841 79.4458C28.4881 79.5418 28.2841 79.5898 27.9721 79.5898H26.6761C25.9321 79.5898 25.3201 79.5178 24.8401 79.3738C24.3841 79.2058 24.0121 78.9778 23.7241 78.6898C23.4601 78.4018 23.2681 78.0538 23.1481 77.6458C23.0521 77.2138 23.0041 76.7218 23.0041 76.1698C23.0041 75.6418 23.0401 74.9098 23.1121 73.9738C23.2081 73.0138 23.3281 71.7058 23.4721 70.0498C23.6161 68.3698 23.7841 66.2338 23.9761 63.6418C24.1681 61.0498 24.3721 57.8338 24.5881 53.9938C24.6121 53.4658 24.6721 53.1538 24.7681 53.0578C24.8401 52.9858 25.0321 52.9498 25.3441 52.9498H26.7481C27.4681 52.9498 28.0681 53.0338 28.5481 53.2018C29.0281 53.3698 29.4121 53.5978 29.7001 53.8858C29.9881 54.1738 30.1921 54.5098 30.3121 54.8938C30.4321 55.2538 30.4921 55.6378 30.4921 56.0458C30.4921 56.4778 30.4441 57.2818 30.3481 58.4578C30.2761 59.6338 30.1801 61.0138 30.0601 62.5978C30.7801 61.3978 31.5721 60.5698 32.4361 60.1138C33.3241 59.6578 34.4401 59.4298 35.7841 59.4298C36.7921 59.4298 37.6681 59.5378 38.4121 59.7538C39.1561 59.9698 39.7681 60.3418 40.2481 60.8698C40.7521 61.3738 41.1241 62.0458 41.3641 62.8858C41.6041 63.7018 41.7241 64.7218 41.7241 65.9458C41.7241 66.3298 41.6881 66.9898 41.6161 67.9258C41.5441 68.8618 41.4481 69.9298 41.3281 71.1298C41.2321 72.3298 41.1241 73.5898 41.0041 74.9098C40.9081 76.2058 40.8241 77.3938 40.7521 78.4738C40.7281 78.7378 40.7041 78.9418 40.6801 79.0858C40.6561 79.2298 40.6081 79.3378 40.5361 79.4098C40.4881 79.4818 40.4041 79.5298 40.2841 79.5538C40.1641 79.5778 39.9961 79.5898 39.7801 79.5898H38.6281C37.8601 79.5898 37.2361 79.5178 36.7561 79.3738C36.2761 79.2298 35.9041 79.0258 35.6401 78.7618C35.3761 78.4978 35.1841 78.1738 35.0641 77.7898C34.9681 77.3818 34.9201 76.9258 34.9201 76.4218C34.9201 76.1818 34.9201 75.9538 34.9201 75.7378C34.9441 75.5218 34.9681 75.3178 34.9921 75.1258ZM52.2184 63.1018C52.2184 63.6538 52.1824 64.3138 52.1104 65.0818C52.0384 65.8258 51.9544 66.5818 51.8584 67.3498C51.7864 68.0938 51.7144 68.8018 51.6424 69.4738C51.5704 70.1218 51.5344 70.6258 51.5344 70.9858C51.5344 71.8978 51.7504 72.5818 52.1824 73.0378C52.6384 73.4698 53.1904 73.6858 53.8384 73.6858C54.9664 73.6858 55.8664 73.0978 56.5384 71.9218C57.2104 70.7458 57.6304 69.1858 57.7984 67.2418L58.3744 60.5098C58.3984 60.2458 58.4824 60.0658 58.6264 59.9698C58.7944 59.8498 58.9744 59.7898 59.1664 59.7898H60.4624C60.9664 59.7898 61.4344 59.8378 61.8664 59.9338C62.3224 60.0058 62.7184 60.1618 63.0544 60.4018C63.3904 60.6178 63.6544 60.9178 63.8464 61.3018C64.0384 61.6858 64.1344 62.1778 64.1344 62.7778C64.1344 63.0178 64.1104 63.4738 64.0624 64.1458C64.0384 64.7938 63.9784 65.7418 63.8824 66.9898C63.8104 68.2138 63.7024 69.7738 63.5584 71.6698C63.4144 73.5418 63.2464 75.8338 63.0544 78.5458C62.9344 80.1298 62.5744 81.4378 61.9744 82.4698C61.3984 83.5258 60.6664 84.3538 59.7784 84.9538C58.8904 85.5778 57.8944 86.0098 56.7904 86.2498C55.6864 86.4898 54.5584 86.6098 53.4064 86.6098C52.1824 86.6098 51.0544 86.5018 50.0224 86.2858C49.0144 86.0698 48.1384 85.7698 47.3944 85.3858C46.6504 85.0018 46.0624 84.5578 45.6304 84.0538C45.2224 83.5498 45.0184 83.0098 45.0184 82.4338C45.0184 81.9778 45.1144 81.5818 45.3064 81.2458C45.5224 80.9098 45.7984 80.6338 46.1344 80.4178C46.4704 80.2018 46.8544 80.0338 47.2864 79.9138C47.7424 79.8178 48.2104 79.7698 48.6904 79.7698C48.9304 79.7698 49.0984 79.8898 49.1944 80.1298C49.3144 80.3698 49.4824 80.6338 49.6984 80.9218C49.9384 81.2338 50.3104 81.5098 50.8144 81.7498C51.3184 81.9898 52.0744 82.1098 53.0824 82.1098C53.9704 82.1098 54.6904 81.8938 55.2424 81.4618C55.7944 81.0298 56.2144 80.4778 56.5024 79.8058C56.8144 79.1338 57.0184 78.4018 57.1144 77.6098C57.2104 76.8178 57.2584 76.0618 57.2584 75.3418C56.8744 76.0138 56.4424 76.5658 55.9624 76.9978C55.5064 77.4058 55.0264 77.7298 54.5224 77.9698C54.0184 78.1858 53.5144 78.3298 53.0104 78.4018C52.5064 78.4738 52.0264 78.5098 51.5704 78.5098C50.6824 78.5098 49.8664 78.3898 49.1224 78.1498C48.4024 77.9098 47.7784 77.5258 47.2504 76.9978C46.7224 76.4458 46.3144 75.7378 46.0264 74.8738C45.7384 74.0098 45.5944 72.9658 45.5944 71.7418C45.5944 71.2858 45.6184 70.6858 45.6664 69.9418C45.7144 69.1738 45.7744 68.3218 45.8464 67.3858C45.9184 66.4258 45.9904 65.3938 46.0624 64.2898C46.1584 63.1858 46.2544 62.0578 46.3504 60.9058C46.3984 60.1618 46.7344 59.7898 47.3584 59.7898H48.5104C49.2784 59.7898 49.9024 59.8618 50.3824 60.0058C50.8624 60.1498 51.2344 60.3658 51.4984 60.6538C51.7864 60.9178 51.9784 61.2658 52.0744 61.6978C52.1704 62.1058 52.2184 62.5738 52.2184 63.1018ZM76.1031 59.4298C78.1431 59.4298 79.6431 59.8378 80.6031 60.6538C81.5631 61.4458 82.0431 62.4658 82.0431 63.7138C82.0431 64.7698 81.7071 65.5738 81.0351 66.1258C80.3871 66.6778 79.4391 66.9538 78.1911 66.9538C77.8551 66.9538 77.6271 66.9178 77.5071 66.8458C77.3871 66.7738 77.3271 66.6418 77.3271 66.4498C77.3271 66.2338 77.3031 65.9938 77.2551 65.7298C77.2311 65.4418 77.1471 65.1778 77.0031 64.9378C76.8831 64.6738 76.6791 64.4578 76.3911 64.2898C76.1271 64.1218 75.7431 64.0378 75.2391 64.0378C74.5671 64.0378 74.0271 64.2058 73.6191 64.5418C73.2111 64.8538 73.0071 65.2498 73.0071 65.7298C73.0071 66.2338 73.2111 66.6418 73.6191 66.9538C74.0511 67.2418 74.5791 67.5178 75.2031 67.7818C75.8511 68.0458 76.5471 68.3218 77.2911 68.6098C78.0351 68.8738 78.7191 69.2338 79.3431 69.6898C79.9911 70.1458 80.5191 70.7218 80.9271 71.4178C81.3591 72.0898 81.5751 72.9658 81.5751 74.0458C81.5751 75.7738 80.9631 77.1898 79.7391 78.2938C78.5151 79.3978 76.6791 79.9498 74.2311 79.9498C73.5591 79.9498 72.7791 79.8898 71.8911 79.7698C71.0271 79.6738 70.1991 79.5178 69.4071 79.3018C68.6151 79.0618 67.9431 78.7498 67.3911 78.3658C66.8631 77.9818 66.5991 77.5018 66.5991 76.9258C66.5991 76.7098 66.6351 76.4458 66.7071 76.1338C66.8031 75.8218 66.9351 75.5218 67.1031 75.2338C67.2951 74.9458 67.5111 74.7058 67.7511 74.5138C68.0151 74.2978 68.3271 74.1898 68.6871 74.1898C68.9751 74.1898 69.2391 74.2618 69.4791 74.4058C69.7191 74.5498 69.9951 74.7058 70.3071 74.8738C70.6431 75.0178 71.0511 75.1618 71.5311 75.3058C72.0111 75.4498 72.6471 75.5218 73.4391 75.5218C74.0391 75.5218 74.5671 75.4498 75.0231 75.3058C75.5031 75.1618 75.7431 74.8378 75.7431 74.3338C75.7431 73.8778 75.5511 73.5178 75.1671 73.2538C74.7831 72.9658 74.2911 72.7018 73.6911 72.4618C73.1151 72.2218 72.4791 71.9698 71.7831 71.7058C71.1111 71.4178 70.4751 71.0458 69.8751 70.5898C69.2991 70.1338 68.8191 69.5578 68.4351 68.8618C68.0511 68.1418 67.8591 67.2178 67.8591 66.0898C67.8591 64.8658 68.0991 63.8338 68.5791 62.9938C69.0831 62.1298 69.7191 61.4338 70.4871 60.9058C71.2791 60.3778 72.1671 60.0058 73.1511 59.7898C74.1351 59.5498 75.1191 59.4298 76.1031 59.4298ZM88.7332 79.5898C87.9892 79.5898 87.3772 79.5178 86.8972 79.3738C86.4412 79.2058 86.0692 78.9778 85.7812 78.6898C85.5172 78.4018 85.3252 78.0538 85.2052 77.6458C85.1092 77.2138 85.0612 76.7218 85.0612 76.1698C85.0612 75.8098 85.0732 75.3058 85.0972 74.6578C85.1452 73.9858 85.2172 73.0738 85.3132 71.9218C85.4092 70.7458 85.5172 69.2698 85.6372 67.4938C85.7812 65.6938 85.9492 63.4738 86.1412 60.8338C86.1652 60.3058 86.2252 59.9938 86.3212 59.8978C86.3932 59.8258 86.5852 59.7898 86.8972 59.7898H88.3012C89.0452 59.7898 89.6452 59.8618 90.1012 60.0058C90.5812 60.1498 90.9532 60.3658 91.2172 60.6538C91.5052 60.9418 91.6972 61.2898 91.7932 61.6978C91.9132 62.1058 91.9732 62.5618 91.9732 63.0658C91.9732 63.4258 91.9492 63.9658 91.9012 64.6858C91.8532 65.4058 91.7812 66.3898 91.6852 67.6378C91.6132 68.8618 91.5052 70.3978 91.3612 72.2458C91.2172 74.0698 91.0372 76.2778 90.8212 78.8698C90.7972 79.1578 90.7372 79.3498 90.6412 79.4458C90.5452 79.5418 90.3412 79.5898 90.0292 79.5898H88.7332ZM86.1772 55.5418C86.1772 54.5818 86.5252 53.8258 87.2212 53.2738C87.9172 52.7218 88.8532 52.4458 90.0292 52.4458C91.0612 52.4458 91.8052 52.6618 92.2612 53.0938C92.7412 53.5018 92.9812 54.0538 92.9812 54.7498C92.9812 55.6378 92.6452 56.3818 91.9732 56.9818C91.3252 57.5578 90.3652 57.8458 89.0932 57.8458C87.1492 57.8458 86.1772 57.0778 86.1772 55.5418ZM104.622 75.1618C105.318 75.1618 105.918 75.0658 106.422 74.8738C106.95 74.6818 107.406 74.4658 107.79 74.2258C108.174 73.9858 108.498 73.7698 108.762 73.5778C109.026 73.3858 109.266 73.2898 109.482 73.2898C110.034 73.2898 110.31 73.6498 110.31 74.3698C110.31 74.5378 110.274 74.7778 110.202 75.0898C110.13 75.3778 110.034 75.6898 109.914 76.0258C109.794 76.3378 109.662 76.6378 109.518 76.9258C109.398 77.2138 109.278 77.4298 109.158 77.5738C109.038 77.6938 108.822 77.8858 108.51 78.1498C108.222 78.4138 107.826 78.6778 107.322 78.9418C106.818 79.2058 106.23 79.4338 105.558 79.6258C104.886 79.8418 104.142 79.9498 103.326 79.9498C102.414 79.9498 101.466 79.8178 100.482 79.5538C99.5222 79.2658 98.6462 78.7858 97.8542 78.1138C97.0622 77.4178 96.4022 76.4938 95.8742 75.3418C95.3702 74.1658 95.1182 72.7018 95.1182 70.9498C95.1182 70.3258 95.1542 69.6178 95.2262 68.8258C95.3222 68.0098 95.5022 67.1818 95.7662 66.3418C96.0302 65.4778 96.3782 64.6378 96.8102 63.8218C97.2662 62.9818 97.8662 62.2378 98.6102 61.5898C99.3542 60.9418 100.242 60.4258 101.274 60.0418C102.33 59.6338 103.578 59.4298 105.018 59.4298C106.194 59.4298 107.202 59.5738 108.042 59.8618C108.906 60.1258 109.614 60.4978 110.166 60.9778C110.718 61.4338 111.126 61.9738 111.39 62.5978C111.678 63.2218 111.822 63.8938 111.822 64.6138C111.822 65.9098 111.414 66.8698 110.598 67.4938C109.782 68.0938 108.63 68.3938 107.142 68.3938C106.782 68.3938 106.53 68.3698 106.386 68.3218C106.266 68.2498 106.206 68.1058 106.206 67.8898C106.206 67.3138 106.194 66.7978 106.17 66.3418C106.146 65.8858 106.074 65.5018 105.954 65.1898C105.858 64.8778 105.702 64.6378 105.486 64.4698C105.27 64.3018 104.958 64.2178 104.55 64.2178C103.806 64.2178 103.206 64.4578 102.75 64.9378C102.318 65.4178 101.982 66.0058 101.742 66.7018C101.526 67.3738 101.382 68.0698 101.31 68.7898C101.262 69.5098 101.238 70.1098 101.238 70.5898C101.238 72.2938 101.502 73.4818 102.03 74.1538C102.582 74.8258 103.446 75.1618 104.622 75.1618ZM113.151 75.1618C113.151 73.0018 114.123 71.3098 116.067 70.0858C118.011 68.8618 120.879 68.2018 124.671 68.1058C124.695 67.8418 124.707 67.6258 124.707 67.4578C124.731 67.2658 124.743 67.0378 124.743 66.7738C124.743 66.0058 124.599 65.3938 124.311 64.9378C124.023 64.4818 123.423 64.2538 122.511 64.2538C122.007 64.2538 121.599 64.3258 121.287 64.4698C120.975 64.6138 120.723 64.8178 120.531 65.0818C120.339 65.3218 120.183 65.6218 120.063 65.9818C119.943 66.3418 119.835 66.7378 119.739 67.1698C119.691 67.3858 119.583 67.5298 119.415 67.6018C119.247 67.6498 118.983 67.6738 118.623 67.6738C116.175 67.6738 114.951 66.7498 114.951 64.9018C114.951 64.1578 115.119 63.4498 115.455 62.7778C115.815 62.1058 116.331 61.5298 117.003 61.0498C117.699 60.5458 118.563 60.1498 119.595 59.8618C120.627 59.5738 121.827 59.4298 123.195 59.4298C125.859 59.4298 127.791 59.9818 128.991 61.0858C130.191 62.1898 130.791 63.7498 130.791 65.7658C130.791 66.0298 130.755 66.5098 130.683 67.2058C130.635 67.8778 130.563 68.5978 130.467 69.3658C130.395 70.1098 130.323 70.8178 130.251 71.4898C130.203 72.1618 130.179 72.6298 130.179 72.8938C130.179 73.4938 130.287 73.9258 130.503 74.1898C130.719 74.4298 130.959 74.5978 131.223 74.6938C131.511 74.7898 131.763 74.8618 131.979 74.9098C132.195 74.9578 132.303 75.0778 132.303 75.2698C132.303 75.7978 132.231 76.3378 132.087 76.8898C131.943 77.4418 131.703 77.9458 131.367 78.4018C131.055 78.8578 130.611 79.2298 130.035 79.5178C129.483 79.8058 128.799 79.9498 127.983 79.9498C126.831 79.9498 125.967 79.6738 125.391 79.1218C124.815 78.5698 124.431 77.8018 124.239 76.8178C123.663 77.6578 122.907 78.3898 121.971 79.0138C121.059 79.6378 119.859 79.9498 118.371 79.9498C117.651 79.9498 116.967 79.8658 116.319 79.6978C115.695 79.5298 115.143 79.2538 114.663 78.8698C114.207 78.4858 113.835 77.9938 113.547 77.3938C113.283 76.7698 113.151 76.0258 113.151 75.1618ZM124.347 71.0578C123.723 71.0578 123.111 71.1058 122.511 71.2018C121.911 71.2978 121.371 71.4538 120.891 71.6698C120.435 71.8618 120.063 72.1258 119.775 72.4618C119.487 72.7978 119.343 73.2058 119.343 73.6858C119.343 74.2378 119.511 74.6218 119.847 74.8378C120.207 75.0538 120.591 75.1618 120.999 75.1618C121.383 75.1618 121.767 75.0778 122.151 74.9098C122.535 74.7418 122.871 74.4898 123.159 74.1538C123.471 73.7938 123.735 73.3618 123.951 72.8578C124.167 72.3538 124.299 71.7538 124.347 71.0578ZM139.093 79.9138C137.605 79.9138 136.537 79.5178 135.889 78.7258C135.241 77.9338 134.917 76.6258 134.917 74.8018C134.917 74.5138 134.929 74.1538 134.953 73.7218C135.001 73.2898 135.049 72.7378 135.097 72.0658C135.169 71.3698 135.253 70.5178 135.349 69.5098C135.445 68.5018 135.541 67.2778 135.637 65.8378C135.757 64.3978 135.877 62.7058 135.997 60.7618C136.141 58.8178 136.285 56.5618 136.429 53.9938C136.453 53.4658 136.513 53.1538 136.609 53.0578C136.681 52.9858 136.873 52.9498 137.185 52.9498H138.589C139.309 52.9498 139.909 53.0338 140.389 53.2018C140.869 53.3698 141.253 53.5978 141.541 53.8858C141.829 54.1738 142.033 54.5098 142.153 54.8938C142.273 55.2538 142.333 55.6378 142.333 56.0458C142.333 56.5258 142.297 57.2218 142.225 58.1338C142.177 59.0218 142.105 60.0298 142.009 61.1578C141.913 62.2858 141.817 63.4618 141.721 64.6858C141.625 65.9098 141.529 67.0858 141.433 68.2138C141.337 69.3178 141.253 70.3138 141.181 71.2018C141.133 72.0898 141.109 72.7618 141.109 73.2178C141.109 73.8418 141.217 74.2858 141.433 74.5498C141.673 74.8138 141.925 75.0058 142.189 75.1258C142.453 75.2218 142.693 75.2938 142.909 75.3418C143.149 75.3658 143.269 75.4378 143.269 75.5578C143.269 76.0858 143.209 76.6138 143.089 77.1418C142.969 77.6458 142.753 78.1138 142.441 78.5458C142.129 78.9538 141.697 79.2898 141.145 79.5538C140.617 79.7938 139.933 79.9138 139.093 79.9138ZM187.563 79.9498C185.907 79.9498 184.527 79.7218 183.423 79.2658C182.343 78.7858 181.479 78.1378 180.831 77.3218C180.183 76.5058 179.727 75.5578 179.463 74.4778C179.199 73.3738 179.067 72.1978 179.067 70.9498C179.067 69.5098 179.235 68.1058 179.571 66.7378C179.931 65.3458 180.531 64.1098 181.371 63.0298C182.211 61.9498 183.315 61.0858 184.683 60.4378C186.075 59.7658 187.803 59.4298 189.867 59.4298C192.891 59.4298 195.051 60.1738 196.347 61.6618C197.667 63.1258 198.327 65.1898 198.327 67.8538C198.327 68.5978 198.267 69.4258 198.147 70.3378C198.051 71.2258 197.847 72.1138 197.535 73.0018C197.247 73.8898 196.839 74.7538 196.311 75.5938C195.807 76.4338 195.159 77.1778 194.367 77.8258C193.575 78.4738 192.615 78.9898 191.487 79.3738C190.383 79.7578 189.075 79.9498 187.563 79.9498ZM189.255 64.2178C188.343 64.2178 187.611 64.4578 187.059 64.9378C186.531 65.3938 186.123 65.9578 185.835 66.6298C185.571 67.2778 185.391 67.9738 185.295 68.7178C185.223 69.4378 185.187 70.0498 185.187 70.5538C185.187 72.1378 185.439 73.3018 185.943 74.0458C186.447 74.7898 187.167 75.1618 188.103 75.1618C188.943 75.1618 189.627 74.8978 190.155 74.3698C190.707 73.8418 191.127 73.2058 191.415 72.4618C191.727 71.7178 191.931 70.9378 192.027 70.1218C192.147 69.3058 192.207 68.6218 192.207 68.0698C192.207 66.8698 191.979 65.9338 191.523 65.2618C191.091 64.5658 190.335 64.2178 189.255 64.2178ZM209.155 64.6498C209.083 65.5618 208.999 66.4618 208.903 67.3498C208.831 68.2378 208.759 69.0778 208.687 69.8698C208.615 70.6618 208.555 71.3698 208.507 71.9938C208.483 72.6178 208.471 73.0978 208.471 73.4338C208.471 74.0578 208.543 74.4778 208.687 74.6938C208.831 74.8858 209.071 74.9818 209.407 74.9818C209.671 74.9818 209.899 74.9338 210.091 74.8378C210.283 74.7418 210.463 74.6338 210.631 74.5138C210.799 74.3938 210.943 74.2858 211.063 74.1898C211.207 74.0938 211.363 74.0458 211.531 74.0458C211.699 74.0458 211.855 74.1418 211.999 74.3338C212.143 74.5258 212.215 74.9698 212.215 75.6658C212.215 76.9858 211.855 78.0298 211.135 78.7978C210.415 79.5658 209.179 79.9498 207.427 79.9498C205.699 79.9498 204.415 79.5538 203.575 78.7618C202.759 77.9458 202.351 76.7098 202.351 75.0538C202.351 74.6938 202.363 74.2738 202.387 73.7938C202.435 73.2898 202.495 72.6418 202.567 71.8498C202.639 71.0578 202.723 70.0858 202.819 68.9338C202.939 67.7818 203.059 66.3538 203.179 64.6498H201.271C201.079 64.6498 200.959 64.6138 200.911 64.5418C200.887 64.4458 200.875 64.3138 200.875 64.1458L200.983 62.3098C201.007 61.9978 201.043 61.6978 201.091 61.4098C201.163 61.0978 201.283 60.8218 201.451 60.5818C201.643 60.3418 201.907 60.1498 202.243 60.0058C202.579 59.8618 203.023 59.7898 203.575 59.7898C203.743 59.3578 203.935 58.8418 204.151 58.2418C204.367 57.6418 204.583 57.0658 204.799 56.5138C205.015 55.9378 205.219 55.4578 205.411 55.0738C205.627 54.6898 205.819 54.4978 205.987 54.4978H207.031C208.039 54.4978 208.735 54.8098 209.119 55.4338C209.503 56.0578 209.695 56.8018 209.695 57.6658C209.695 58.1458 209.659 58.8538 209.587 59.7898H213.367C213.751 59.7898 213.943 59.9578 213.943 60.2938L213.799 62.2378C213.751 62.9578 213.547 63.5458 213.187 64.0018C212.851 64.4338 212.143 64.6498 211.063 64.6498H209.155ZM224.264 79.9498C223.208 79.9498 222.152 79.8178 221.096 79.5538C220.064 79.2898 219.128 78.8338 218.288 78.1858C217.472 77.5378 216.8 76.6738 216.272 75.5938C215.744 74.5138 215.48 73.1578 215.48 71.5258C215.48 70.9258 215.528 70.2058 215.624 69.3658C215.72 68.5258 215.9 67.6618 216.164 66.7738C216.452 65.8858 216.836 65.0098 217.316 64.1458C217.82 63.2578 218.468 62.4658 219.26 61.7698C220.052 61.0738 221.012 60.5098 222.14 60.0778C223.268 59.6458 224.612 59.4298 226.172 59.4298C227.42 59.4298 228.476 59.5738 229.34 59.8618C230.204 60.1498 230.9 60.5458 231.428 61.0498C231.956 61.5298 232.34 62.0938 232.58 62.7418C232.82 63.3898 232.94 64.0858 232.94 64.8298C232.94 65.9338 232.712 66.8698 232.256 67.6378C231.824 68.4058 231.248 69.0538 230.528 69.5818C229.832 70.0858 229.052 70.4818 228.188 70.7698C227.324 71.0578 226.472 71.2858 225.632 71.4538C224.792 71.5978 224.012 71.6938 223.292 71.7418C222.596 71.7658 222.056 71.7778 221.672 71.7778C221.672 72.2338 221.732 72.6898 221.852 73.1458C221.996 73.5778 222.2 73.9618 222.464 74.2978C222.728 74.6338 223.076 74.9098 223.508 75.1258C223.94 75.3418 224.468 75.4498 225.092 75.4498C225.716 75.4498 226.196 75.3538 226.532 75.1618C226.892 74.9458 227.18 74.7178 227.396 74.4778C227.612 74.2138 227.792 73.9858 227.936 73.7938C228.104 73.5778 228.32 73.4698 228.584 73.4698C228.704 73.4698 228.908 73.5058 229.196 73.5778C229.508 73.6258 229.82 73.7458 230.132 73.9378C230.444 74.1298 230.72 74.3938 230.96 74.7298C231.2 75.0658 231.32 75.4978 231.32 76.0258C231.32 76.7218 231.104 77.3218 230.672 77.8258C230.24 78.3298 229.676 78.7378 228.98 79.0498C228.308 79.3618 227.552 79.5898 226.712 79.7338C225.872 79.8778 225.056 79.9498 224.264 79.9498ZM224.948 64.2178C224.42 64.2178 223.964 64.3738 223.58 64.6858C223.22 64.9738 222.908 65.3458 222.644 65.8018C222.404 66.2578 222.212 66.7618 222.068 67.3138C221.948 67.8658 221.852 68.3938 221.78 68.8978C223.268 68.8738 224.468 68.6218 225.38 68.1418C226.316 67.6618 226.784 66.9778 226.784 66.0898C226.784 65.6098 226.628 65.1778 226.316 64.7938C226.028 64.4098 225.572 64.2178 224.948 64.2178Z" fill="#A5ED2E"/>
<path d="M10.8935 75.8059C10.596 73.2536 10.0625 71.9522 9.43049 67.3444C8.58254 63.5785 8.5091 60.9451 8.01053 57.1227C7.48539 53.0966 6.97168 49.0378 6.78851 44.9713C6.54689 39.6074 6 33.9752 6 28.6065C6 24.2632 6.34918 20.0669 7.60606 15.8578C8.69378 12.2152 9.51884 9.50528 12.5658 6.93946C13.6639 6.0147 15.6857 4.28042 17.038 3.93018C19.3907 3.32086 21.7866 2.98178 24.2153 3.00076C26.5201 3.01876 28.7288 3.74757 30.945 4.31744C33.5772 4.9943 35.6917 5.85374 37.8555 7.49299C41.5448 10.288 44.1802 13.9156 46.3408 18.0093C47.907 20.9767 49 23.8122 49 27.2003C49 30.5056 48.7132 33.743 47.2272 36.77C45.8406 39.5945 43.3581 42.1462 40.7728 43.9042C38.2018 45.6525 35.5936 46.2253 32.5801 46.7527C31.5123 46.9396 30.3726 46.8387 29.2927 46.8387C27.6493 46.8387 25.9617 46.9603 24.3358 46.6838C20.2579 45.9906 15.9452 44.8422 12.2102 43.035C11.2033 42.5478 10.2996 41.6476 9.43049 40.9524C8.50331 40.2106 7.55208 39.4698 6.71105 38.6288" stroke="#505646" stroke-width="6" stroke-linecap="round"/>
<path d="M17.7095 19.5762C18.4751 21.3843 19.2622 22.4097 20.033 23.7586" stroke="#505646" stroke-width="4.5" stroke-linecap="round"/>
<path d="M33.9743 18.6455C33.5762 20.0702 32.9196 21.3834 32.4253 22.5181" stroke="#505646" stroke-width="4.5" stroke-linecap="round"/>
<path d="M21.7368 33.6723C21.7368 33.6723 22.4146 36.486 25.6974 37.1425C27.3137 37.3598 29.2132 37.447 31.0311 36.538C33.4479 35.3296 35.0586 33.358 35.0586 30.5742" stroke="#505646" stroke-width="4.5" stroke-linecap="round"/>
<path d="M159 61.0253C159.305 62.9163 159.689 64.0544 160.37 66.6459C160.936 68.4181 161.182 70.3248 161.446 72.1648C161.693 73.8888 161.65 75.6463 161.65 77.3843C161.65 77.7278 161.643 77.6095 161.672 77.26C161.825 75.4179 162.289 73.6234 162.522 71.792C163.089 67.3219 163.131 66.1153 164.508 64.0544C164.508 64.0544 165.886 61.0253 169.328 60.6194C172.535 60.2414 173.881 63.5749 174.23 65.6009C174.436 66.7994 174.577 67.9819 174.672 69.1935C174.753 70.2315 174.694 71.3064 174.819 72.3343C174.987 73.7154 175 75.0859 175 76.4805" stroke="#505646" stroke-width="4.5" stroke-linecap="round"/>
</svg>
