<svg width="27" height="27" viewBox="0 0 27 27" fill="none" xmlns="http://www.w3.org/2000/svg">
<g id="activity-heart">
<path id="Icon" d="M17.4375 12.512H16.3125L14.625 15.762L12.375 9.26204L10.6875 12.512H9.5625M13.4923 5.61751C11.243 3.08531 7.49221 2.40416 4.67403 4.72289C1.85585 7.04163 1.45909 10.9184 3.67222 13.6608C5.34385 15.7322 10.0927 19.8906 12.3165 21.8015C12.7253 22.1528 12.9297 22.3284 13.1691 22.3976C13.3768 22.4576 13.6077 22.4576 13.8155 22.3976C14.0549 22.3284 14.2593 22.1528 14.6681 21.8015C16.8919 19.8906 21.6407 15.7322 23.3124 13.6608C25.5255 10.9184 25.1772 7.01724 22.3106 4.72289C19.4439 2.42855 15.7416 3.08531 13.4923 5.61751Z" stroke="black" stroke-width="2" stroke-linecap="round" stroke-linejoin="round"/>
</g>
</svg>
