<svg width="27" height="26" viewBox="0 0 27 26" fill="none" xmlns="http://www.w3.org/2000/svg">
<g id="line-chart-up-02">
<path id="Icon" d="M23.625 21.9287H5.175C4.54494 21.9287 4.22991 21.9287 3.98926 21.8152C3.77758 21.7153 3.60548 21.556 3.49762 21.36C3.375 21.1371 3.375 20.8454 3.375 20.262V3.17871M23.625 7.34538L17.5114 13.0061C17.2886 13.2124 17.1773 13.3155 17.0488 13.3541C16.9358 13.3881 16.8142 13.3881 16.7012 13.3541C16.5727 13.3155 16.4614 13.2124 16.2386 13.0061L14.1364 11.0596C13.9136 10.8534 13.8023 10.7502 13.6738 10.7116C13.5608 10.6776 13.4392 10.6776 13.3262 10.7116C13.1977 10.7502 13.0864 10.8534 12.8636 11.0596L7.875 15.6787M23.625 7.34538H19.125M23.625 7.34538V11.512" stroke="black" stroke-width="2" stroke-linecap="round" stroke-linejoin="round"/>
</g>
</svg>
