<svg width="36" height="32" viewBox="0 0 36 32" fill="none" xmlns="http://www.w3.org/2000/svg">
<g id="home-02">
<path id="Icon" d="M13.5 27.8214V18.2401C13.5 17.515 13.5 17.1524 13.6635 16.8755C13.8073 16.6319 14.0368 16.4338 14.319 16.3096C14.6399 16.1685 15.0599 16.1685 15.9 16.1685H20.1C20.9401 16.1685 21.3601 16.1685 21.681 16.3096C21.9632 16.4338 22.1927 16.6319 22.3365 16.8755C22.5 17.1524 22.5 17.515 22.5 18.2401V27.8214M16.5265 4.2101L6.35309 11.0401C5.67303 11.4967 5.33301 11.725 5.08804 12.0109C4.87105 12.2641 4.7094 12.5494 4.61104 12.8527C4.5 13.1951 4.5 13.567 4.5 14.3106V23.6782C4.5 25.1284 4.5 25.8536 4.82698 26.4075C5.1146 26.8947 5.57354 27.2909 6.13803 27.5392C6.77976 27.8214 7.61984 27.8214 9.3 27.8214H26.7C28.3802 27.8214 29.2202 27.8214 29.862 27.5392C30.4265 27.2909 30.8854 26.8947 31.173 26.4075C31.5 25.8536 31.5 25.1284 31.5 23.6782V14.3106C31.5 13.567 31.5 13.1951 31.389 12.8527C31.2906 12.5494 31.129 12.2641 30.912 12.0109C30.667 11.725 30.327 11.4967 29.6469 11.0401L19.4735 4.2101C18.9465 3.8563 18.683 3.67941 18.392 3.61141C18.1353 3.55141 17.8647 3.55141 17.608 3.61141C17.317 3.67941 17.0535 3.8563 16.5265 4.2101Z" stroke="#C1C1C1" stroke-width="2" stroke-linecap="round" stroke-linejoin="round"/>
</g>
</svg>
