<svg width="22" height="38" viewBox="0 0 22 38" fill="none" xmlns="http://www.w3.org/2000/svg">
<g id="retired man">
<path id="Vector" d="M21.9196 3.29732C21.7169 2.0481 21.3708 0.878378 20.1929 0.284053C19.9377 0.155346 19.6546 0.000139734 19.3854 0.000139734C17.9139 -0.0112168 16.7219 0.670175 15.7747 1.85504C15.6209 2.0481 15.516 2.07081 15.3063 2.00267C15.0232 1.90804 14.7156 1.81718 14.4255 1.8399C13.4747 1.91182 12.517 2.18816 11.5837 2.10488C10.1401 1.97996 8.88175 2.3358 7.71429 3.20647C6.88937 3.81972 6.033 4.39133 5.26401 5.07651C4.63833 5.62919 4.12451 6.32951 3.55126 6.95412C2.87665 7.68851 2.43273 8.55161 2.27544 9.57748C2.22301 9.91439 2.21252 10.2816 2.08319 10.5844C1.85949 11.1068 1.59733 11.6254 1.27925 12.0873C0.625609 13.0374 0.325005 14.1239 0.0873173 15.2482C-0.262223 16.9024 0.464821 18.7157 1.78259 19.6204C1.98183 19.7567 2.1531 20.0633 2.19854 20.317C2.39778 21.4753 2.54808 22.6413 2.70887 23.8072C2.92209 25.3744 3.13531 26.9303 2.95005 28.5391C2.74732 30.2956 2.54459 32.0672 2.74382 33.8502C2.86267 34.9025 2.89762 35.9436 2.50264 36.9581C2.35234 37.348 2.57604 37.7833 3.02346 37.8893C3.46038 37.9953 3.97071 38.0597 4.38317 37.9196C5.38635 37.5827 6.39652 37.4994 7.43465 37.4843C7.88906 37.4767 8.35744 37.3555 8.78738 37.189C9.25926 37.0035 9.32567 36.5114 8.91321 36.2085C8.5392 35.936 8.09179 35.7656 7.65486 35.6142C7.22843 35.4666 6.77752 35.4098 6.3371 35.3038C6.05048 35.2357 5.92464 35.0426 5.97358 34.717C6.03649 34.2817 6.09592 33.8464 6.15534 33.411C6.35807 31.9044 6.4874 30.3826 6.78101 28.8987C7.07463 27.4337 7.34727 25.9801 7.34377 24.4772C7.34377 24.1555 7.34377 23.8337 7.34377 23.4438C8.10927 23.8261 8.78039 24.1479 9.44451 24.4924C9.86746 24.7119 10.0667 25.0981 10.182 25.5902C10.5805 27.3164 10.6644 29.0615 10.626 30.8331C10.605 31.7946 10.5456 32.7372 10.3114 33.676C10.1925 34.1454 10.21 34.6754 10.2554 35.1675C10.3044 35.7164 10.5351 35.8527 11.0454 35.8981C11.5208 35.9398 12.0031 35.9966 12.4576 36.1404C13.4922 36.4697 17.0191 36.5757 17.2463 36.341C17.5014 36.076 17.442 35.8073 17.1868 35.5764C16.9212 35.3341 16.6311 35.1145 16.3864 34.8495C16.3759 34.8382 16.3689 34.8268 16.3584 34.8193C16.2536 34.7852 16.1452 34.7549 16.0403 34.7208C15.7642 34.6338 15.4811 34.5316 15.2748 34.3196C15.2748 34.3271 15.2748 34.3347 15.2748 34.3423C14.7191 33.8199 14.0899 33.5473 13.7928 32.8546C13.8627 31.2874 14.6072 25.1965 14.4255 24.023C14.3905 23.8072 14.4255 23.5498 14.4989 23.3454C14.7785 22.5958 14.8484 21.8501 14.7366 21.04C14.6387 20.3245 14.2717 19.5977 14.6527 18.852C14.6771 18.8066 14.6492 18.7271 14.6527 18.6665C14.6736 18.1024 14.6876 17.5384 14.7191 16.9781C14.7575 16.3346 14.8694 15.6949 14.8589 15.0551C14.8274 12.4128 14.7575 9.77433 14.7121 7.13583C14.7086 6.84434 14.7366 6.53014 14.8309 6.26137C14.8869 6.10617 15.0966 5.94718 15.2539 5.92446C15.3482 5.90932 15.5125 6.13267 15.5824 6.2803C15.7188 6.57178 15.7957 6.89734 15.925 7.19639C16.1941 7.82857 16.3235 7.85886 16.8687 7.48031C16.9911 7.39703 17.1239 7.32889 17.2428 7.24182C17.5888 6.99955 17.9139 6.92384 18.2669 7.26453C18.3473 7.34024 18.6199 7.28725 18.7353 7.19261C18.9031 7.05633 18.994 6.81406 19.1478 6.6475C19.2631 6.52257 19.4204 6.43551 19.5672 6.34844C19.7944 6.21216 20.0566 6.12131 20.2523 5.94718C20.5634 5.66705 20.822 5.31878 21.1296 5.03108C21.245 4.9213 21.4268 4.83045 21.5736 4.83802C21.8951 4.85316 22 4.65632 22 4.38376C22 4.02414 21.9825 3.65694 21.9231 3.30489L21.9196 3.29732ZM10.2974 13.1813C10.3463 13.1851 10.3988 13.1889 10.4477 13.1926C10.6784 13.5788 10.9126 13.9649 11.1433 14.351C11.1118 14.3926 11.0839 14.4343 11.0524 14.4797C10.7588 14.2715 10.4267 14.1012 10.189 13.8324C10.1051 13.7378 10.2519 13.4046 10.2939 13.1813H10.2974ZM12.0416 20.5744C10.5316 19.3517 9.02506 18.1327 7.52554 16.8987C7.34377 16.751 7.15852 16.5655 7.05366 16.3535C6.9453 16.1302 6.92782 15.8576 6.85791 15.551C7.3962 15.7251 7.81216 15.9182 8.24559 15.9826C8.49726 16.0204 8.81534 15.9182 9.02856 15.7592C9.26275 15.5851 9.39208 15.5775 9.57035 15.7933C9.71366 15.9674 9.90241 16.1037 10.0352 16.2854C10.4232 16.8116 10.8846 17.0274 11.4788 16.7207C11.8389 18.0722 12.3352 19.3441 12.4261 20.8091C12.2548 20.7031 12.136 20.6501 12.0381 20.5706L12.0416 20.5744Z" fill="#FF0000"/>
</g>
</svg>
