<svg width="34" height="46" viewBox="0 0 34 46" fill="none" xmlns="http://www.w3.org/2000/svg">
<g id="running man">
<path id="Vector" d="M24.9006 17.6417C25.2191 18.0212 25.6468 18.0122 26.0746 18.0664C27.0938 18.1929 28.1131 18.3375 29.1323 18.5002C29.3962 18.5454 29.6602 18.6538 29.915 18.7442C30.0879 18.8074 30.2062 18.7623 30.2881 18.6177C30.6157 18.0393 30.7613 17.4248 30.552 16.7741C30.3882 16.259 29.9514 16.1144 29.469 16.0602C29.1232 16.024 28.7865 16.0782 28.468 16.2048C28.0403 16.3674 27.6399 16.3313 27.2212 16.1686C26.8299 16.015 26.4932 15.7891 26.202 15.4818C25.9836 15.2468 25.8926 14.9757 25.9927 14.6685C26.1474 14.1895 26.2566 13.7105 26.2202 13.2045C26.2202 13.096 26.2657 12.9695 26.3203 12.8791C26.6479 12.4002 26.6934 11.867 26.6661 11.3157C26.6388 10.8096 26.6206 10.3126 26.5933 9.80652C26.5751 9.39081 26.4113 9.02933 26.0928 8.76725C25.7379 8.47807 25.3647 8.22503 24.9916 7.96295C24.8733 7.88162 24.8369 7.81836 24.9097 7.70088C24.937 7.65569 24.9643 7.61955 24.9825 7.57436C25.0735 7.35747 25.2373 7.30325 25.4648 7.31228C25.7652 7.31228 26.0655 7.29421 26.3567 7.25806C26.6206 7.23095 26.7116 7.12251 26.7025 6.86043C26.6934 6.6345 26.7298 6.45376 26.93 6.33628C26.9573 6.31821 26.9846 6.29109 26.9846 6.27302C27.0301 6.03806 27.0847 5.80309 27.1029 5.56813C27.112 5.42354 27.1484 5.33317 27.2758 5.26087C27.385 5.20665 27.476 5.12531 27.5762 5.06205C27.7127 4.98072 27.7218 4.87227 27.6399 4.75479C27.4851 4.5379 27.3122 4.33005 27.1666 4.11316C27.1211 4.0499 27.0756 3.94146 27.112 3.89627C27.2667 3.64323 27.1666 3.38116 27.1666 3.11908C27.1666 3.0739 27.1575 3.01967 27.1484 2.97449C27.1029 2.69434 27.1393 2.45938 27.4396 2.31478C27.6399 2.21537 27.6854 2.01656 27.649 1.79967C27.5124 1.02248 27.0756 0.49833 26.3112 0.290477C25.3829 0.0193651 24.4274 -0.0619685 23.4718 0.0464764C22.3616 0.172995 21.8429 0.642923 21.588 1.71834C21.3332 2.79375 21.4242 3.83301 21.9339 4.82709C22.034 5.0259 22.1159 5.25183 22.1614 5.47776C22.2706 6.02902 22.0886 6.47184 21.6426 6.82428C21.2058 7.15865 20.6871 7.32132 20.1866 7.52917C19.9864 7.61051 19.7861 7.6828 19.5859 7.7551C18.9944 7.96295 18.4575 8.25214 17.9479 8.61362C17.511 8.92088 17.0014 9.13777 16.5464 9.42696C15.8274 9.88785 15.1267 10.3668 14.426 10.8458C14.0528 11.0988 13.7161 11.397 13.3339 11.632C12.7333 12.0025 12.5968 12.5267 12.7242 13.1683C12.9699 14.4425 13.4431 15.6445 14.1439 16.738C14.6808 17.5784 15.245 18.3917 15.8001 19.2231C16.055 19.5937 16.2006 20.0094 16.1551 20.4522C16.1005 20.9763 16.3189 21.383 16.6556 21.7445C16.7557 21.862 16.7921 21.9704 16.7648 22.106C16.6101 22.9193 16.7193 23.6784 17.1288 24.4014C17.1743 24.4737 17.1561 24.6183 17.1197 24.6996C16.874 25.2147 16.601 25.7298 16.3462 26.245C16.2097 26.5161 16.1733 26.7781 16.3189 27.0764C16.3826 27.2029 16.3462 27.4107 16.3098 27.5734C16.0641 28.6127 15.8092 29.6519 15.5544 30.6912C15.5089 30.8629 15.4725 31.0346 15.4452 31.2063C15.4179 31.3599 15.3451 31.387 15.1995 31.3328C14.5352 31.0888 13.8708 30.8448 13.2065 30.6099C12.7606 30.4472 12.2965 30.2936 11.8141 30.4201C10.895 30.6641 9.96673 30.6008 9.02938 30.5918C8.41965 30.5918 7.80992 30.5737 7.20019 30.5737C6.72696 30.5737 6.30834 30.411 5.92612 30.1399C5.4074 29.7604 4.87957 29.3808 4.36994 29.0013C4.25163 28.9109 4.14243 28.9109 4.02413 28.9922C3.93312 29.0555 3.83302 29.1097 3.76021 29.182C2.95027 30.0496 2.13123 30.9171 1.33038 31.8028C0.757053 32.4353 0.402138 33.1854 0.229229 34.0259C0.165524 34.3241 0.0927238 34.6314 0.0199203 34.9296C-0.0437851 35.2097 0.0472183 35.4266 0.265629 35.6074C0.347534 35.6706 0.402138 35.6797 0.484039 35.6074C0.738853 35.3634 1.00277 35.1284 1.24848 34.8844C1.81271 34.3422 2.46795 33.9897 3.22328 33.7548C3.72381 33.6011 4.21524 33.3752 4.67026 33.1131C5.4802 32.6432 6.33565 32.5528 7.22749 32.6703C8.29225 32.8059 9.3661 32.9685 10.4218 33.1583C11.6412 33.3842 12.8243 33.7367 14.0073 34.0891C14.7172 34.306 15.4361 34.4958 16.1551 34.6675C16.8376 34.8302 17.4473 34.6675 17.8568 34.053C18.2573 33.4565 18.6395 32.842 18.9944 32.2185C19.6132 31.1521 20.2139 30.0676 20.8236 28.9922C20.8509 28.938 20.8964 28.8838 20.9328 28.8386C21.9339 29.679 22.9349 30.5105 23.9178 31.3509C24.3455 31.7214 24.5457 32.2185 24.5366 32.7878C24.5366 33.4114 24.5184 34.0349 24.5366 34.6585C24.573 35.6616 24.8551 36.6105 25.1918 37.5503C25.3738 38.0654 25.5649 38.5896 25.7743 39.0957C26.1292 39.9361 26.2475 40.8127 26.3385 41.7074C26.3567 41.9062 26.3658 42.105 26.384 42.3038C26.4113 42.5388 26.3931 42.7557 26.2657 42.9635C26.2202 43.0358 26.2111 43.1352 26.1929 43.2256C26.111 43.7498 26.1019 44.2649 26.3203 44.7529C26.384 44.9065 26.3749 45.033 26.2475 45.1686C26.1474 45.277 26.2384 45.4939 26.4204 45.5481C26.7116 45.6295 27.0119 45.6837 27.3031 45.765C27.8856 45.9277 28.4771 45.8464 29.0686 45.9006C29.5965 45.9458 30.1243 45.9819 30.6521 46C30.8614 46 31.0707 45.9548 31.28 45.9006C31.6532 45.8102 32.0354 45.7018 32.3994 45.5843C32.5541 45.5301 32.7179 45.4578 32.8544 45.3584C33.182 45.0963 33.5006 44.8071 33.8191 44.527C33.9192 44.4275 34.0466 44.3101 33.9829 44.1474C33.9192 43.9757 33.7372 43.9847 33.5916 43.9757C33.2275 43.9576 32.8635 43.9667 32.4995 43.9395C31.7988 43.8853 31.1253 43.7046 30.5429 43.3069C30.0242 42.9545 29.5146 42.6021 29.0231 42.2135C28.468 41.7797 28.1586 41.1923 28.0767 40.4874C27.9857 39.665 27.8765 38.8426 27.831 38.0112C27.7491 36.6105 27.7036 35.2007 27.6672 33.7999C27.6581 33.4746 27.7036 33.1402 27.7491 32.8059C27.7673 32.6793 27.8401 32.5528 27.922 32.4534C28.2041 32.101 28.2132 31.4142 27.922 31.0708C27.3122 30.3659 26.8208 29.5796 26.3658 28.7663C25.5103 27.2571 24.6822 25.7389 23.8359 24.2297C23.2534 23.1814 23.1351 22.0969 23.4172 20.9312C23.6902 19.8015 24.0998 18.7532 24.7823 17.8043C24.8187 17.7591 24.8551 17.714 24.9097 17.6507L24.9006 17.6417ZM18.6031 15.7619C18.5485 16.4307 18.5121 17.0994 18.4393 17.7682C18.412 18.0574 18.3301 18.3556 18.0935 18.5725C18.0298 18.6357 17.9661 18.69 17.875 18.6086C17.4382 18.202 16.9559 17.8224 16.7011 17.2802C16.4281 16.7108 16.0823 16.1686 15.9639 15.536C15.8365 14.8582 15.6818 14.1805 15.5362 13.4936C15.4907 13.2948 15.5817 13.1502 15.7455 13.0508C15.8183 13.0056 15.9002 12.9514 15.9912 12.9243C16.6283 12.6984 17.2562 12.4725 17.8932 12.2375C18.0025 12.2013 18.0662 12.2375 18.1026 12.3369C18.1572 12.5267 18.2209 12.7074 18.2573 12.8972C18.4757 13.8371 18.5121 14.804 18.594 15.7619H18.6031Z" fill="#A5ED2E"/>
</g>
</svg>
