<svg width="25" height="34" viewBox="0 0 25 34" fill="none" xmlns="http://www.w3.org/2000/svg">
<path d="M18.3093 13.0395C18.5435 13.32 18.858 13.3134 19.1725 13.3534C19.9219 13.4469 20.6714 13.5538 21.4208 13.674C21.6149 13.7074 21.8089 13.7876 21.9963 13.8544C22.1234 13.9012 22.2104 13.8678 22.2707 13.7609C22.5116 13.3334 22.6186 12.8792 22.4647 12.3982C22.3443 12.0175 22.0231 11.9106 21.6684 11.8706C21.4141 11.8438 21.1666 11.8839 20.9324 11.9774C20.6178 12.0977 20.3234 12.0709 20.0156 11.9507C19.7279 11.8372 19.4803 11.6702 19.2662 11.4431C19.1056 11.2694 19.0386 11.069 19.1123 10.8419C19.226 10.4879 19.3063 10.1339 19.2795 9.75982C19.2795 9.67966 19.313 9.58615 19.3532 9.51935C19.594 9.16533 19.6275 8.77124 19.6074 8.36378C19.5874 7.98973 19.574 7.62235 19.5539 7.24829C19.5405 6.94103 19.4201 6.67385 19.1859 6.48014C18.9249 6.2664 18.6505 6.07937 18.3762 5.88566C18.2892 5.82555 18.2624 5.77879 18.316 5.69195C18.336 5.65856 18.3561 5.63184 18.3695 5.59844C18.4364 5.43813 18.5569 5.39805 18.7241 5.40473C18.945 5.40473 19.1658 5.39137 19.3799 5.36465C19.574 5.34462 19.6409 5.26446 19.6342 5.07075C19.6275 4.90376 19.6543 4.77017 19.8015 4.68334C19.8216 4.66998 19.8416 4.64994 19.8416 4.63658C19.8751 4.46291 19.9152 4.28924 19.9286 4.11557C19.9353 4.0087 19.9621 3.9419 20.0558 3.88847C20.1361 3.84839 20.203 3.78827 20.2766 3.74152C20.377 3.6814 20.3836 3.60125 20.3234 3.51441C20.2097 3.3541 20.0825 3.20047 19.9755 3.04016C19.942 2.9934 19.9085 2.91325 19.9353 2.87985C20.0491 2.69282 19.9755 2.49912 19.9755 2.30541C19.9755 2.27201 19.9688 2.23193 19.9621 2.19853C19.9286 1.99147 19.9554 1.8178 20.1762 1.71093C20.3234 1.63745 20.3569 1.4905 20.3301 1.33019C20.2297 0.755746 19.9085 0.368331 19.3465 0.214701C18.6639 0.0143134 17.9613 -0.0458028 17.2587 0.0343521C16.4423 0.127866 16.0609 0.475204 15.8736 1.27007C15.6862 2.06494 15.7531 2.83309 16.1278 3.56785C16.2014 3.7148 16.2617 3.88179 16.2951 4.04878C16.3754 4.45623 16.2416 4.78353 15.9137 5.04403C15.5925 5.29118 15.2111 5.41141 14.8431 5.56504C14.6959 5.62516 14.5486 5.67859 14.4014 5.73203C13.9665 5.88566 13.5717 6.09941 13.1969 6.36659C12.8758 6.5937 12.501 6.75401 12.1665 6.96775C11.6378 7.30841 11.1226 7.66243 10.6073 8.01645C10.333 8.20347 10.0854 8.4239 9.80435 8.59757C9.36271 8.87143 9.26233 9.25885 9.35601 9.7331C9.53668 10.6749 9.88464 11.5633 10.3999 12.3715C10.7947 12.9927 11.2096 13.5939 11.6177 14.2084C11.8051 14.4823 11.9122 14.7895 11.8787 15.1168C11.8386 15.5043 11.9992 15.8048 12.2468 16.072C12.3204 16.1588 12.3471 16.239 12.3271 16.3392C12.2133 16.9404 12.2936 17.5014 12.5947 18.0358C12.6282 18.0892 12.6148 18.1961 12.588 18.2562C12.4073 18.637 12.2066 19.0177 12.0192 19.3984C11.9189 19.5988 11.8921 19.7925 11.9992 20.013C12.046 20.1065 12.0192 20.2601 11.9925 20.3803C11.8118 21.1485 11.6244 21.9166 11.4371 22.6848C11.4036 22.8117 11.3769 22.9386 11.3568 23.0655C11.3367 23.1791 11.2832 23.1991 11.1761 23.159C10.6876 22.9787 10.1991 22.7983 9.71066 22.6247C9.38278 22.5044 9.04151 22.3909 8.68686 22.4844C8.01102 22.6648 7.32848 22.618 6.63926 22.6113C6.19092 22.6113 5.74259 22.598 5.29426 22.598C4.9463 22.598 4.63849 22.4777 4.35744 22.2773C3.97603 21.9968 3.58792 21.7163 3.21319 21.4357C3.1262 21.3689 3.04591 21.3689 2.95892 21.429C2.892 21.4758 2.8184 21.5159 2.76486 21.5693C2.16932 22.2105 1.56708 22.8518 0.978226 23.5064C0.55666 23.974 0.295691 24.5284 0.16855 25.1496C0.12171 25.37 0.0681801 25.5971 0.0146484 25.8175C-0.0321922 26.0246 0.0347214 26.1849 0.195318 26.3185C0.255543 26.3652 0.295691 26.3719 0.355913 26.3185C0.543276 26.1381 0.737331 25.9645 0.918001 25.7841C1.33288 25.3833 1.81467 25.1228 2.37006 24.9492C2.7381 24.8356 3.09944 24.6686 3.43402 24.4749C4.02956 24.1276 4.65857 24.0608 5.31433 24.1476C6.09724 24.2478 6.88684 24.368 7.66306 24.5083C8.55972 24.6753 9.42962 24.9358 10.2995 25.1963C10.8215 25.3566 11.3501 25.4969 11.8787 25.6238C12.3806 25.744 12.8289 25.6238 13.13 25.1696C13.4245 24.7287 13.7055 24.2745 13.9665 23.8136C14.4215 23.0255 14.8631 22.2239 15.3115 21.429C15.3315 21.389 15.365 21.3489 15.3918 21.3155C16.1278 21.9367 16.8639 22.5512 17.5866 23.1724C17.9011 23.4463 18.0483 23.8136 18.0416 24.2345C18.0416 24.6953 18.0282 25.1562 18.0416 25.6171C18.0684 26.3586 18.2758 27.0599 18.5234 27.7546C18.6572 28.1353 18.7978 28.5227 18.9517 28.8968C19.2126 29.518 19.2996 30.1659 19.3665 30.8272C19.3799 30.9741 19.3866 31.1211 19.4 31.2681C19.4201 31.4417 19.4067 31.602 19.313 31.7557C19.2795 31.8091 19.2729 31.8826 19.2595 31.9494C19.1992 32.3368 19.1926 32.7175 19.3532 33.0782C19.4 33.1918 19.3933 33.2853 19.2996 33.3855C19.226 33.4656 19.2929 33.6259 19.4268 33.666C19.6409 33.7261 19.8617 33.7662 20.0758 33.8263C20.5041 33.9466 20.939 33.8864 21.374 33.9265C21.7621 33.9599 22.1502 33.9866 22.5383 34C22.6922 34 22.8461 33.9666 23 33.9265C23.2744 33.8597 23.5554 33.7796 23.8231 33.6927C23.9368 33.6527 24.0573 33.5992 24.1577 33.5257C24.3986 33.332 24.6328 33.1183 24.867 32.9112C24.9406 32.8377 25.0343 32.7509 24.9874 32.6307C24.9406 32.5038 24.8067 32.5105 24.6997 32.5038C24.432 32.4904 24.1644 32.4971 23.8967 32.4771C23.3814 32.437 22.8863 32.3034 22.458 32.0095C22.0766 31.749 21.7019 31.4885 21.3405 31.2013C20.9324 30.8806 20.7048 30.4465 20.6446 29.9255C20.5777 29.3176 20.4974 28.7098 20.4639 28.0953C20.4037 27.0599 20.3703 26.0179 20.3435 24.9826C20.3368 24.7421 20.3703 24.495 20.4037 24.2478C20.4171 24.1543 20.4706 24.0608 20.5309 23.9873C20.7383 23.7268 20.745 23.2192 20.5309 22.9653C20.0825 22.4443 19.7212 21.8632 19.3866 21.262C18.7576 20.1466 18.1487 19.0244 17.5264 17.9089C17.0981 17.1341 17.0111 16.3325 17.2186 15.4709C17.4193 14.6359 17.7204 13.8611 18.2223 13.1597C18.249 13.1263 18.2758 13.0929 18.316 13.0462L18.3093 13.0395ZM13.6787 11.6501C13.6386 12.1444 13.6118 12.6387 13.5583 13.133C13.5382 13.3467 13.478 13.5672 13.304 13.7275C13.2572 13.7742 13.2103 13.8143 13.1434 13.7542C12.8222 13.4536 12.4676 13.1731 12.2802 12.7723C12.0795 12.3515 11.8252 11.9507 11.7382 11.4831C11.6445 10.9822 11.5308 10.4812 11.4237 9.97356C11.3902 9.82661 11.4572 9.71974 11.5776 9.64626C11.6311 9.61286 11.6914 9.57279 11.7583 9.55275C12.2267 9.38576 12.6884 9.21877 13.1568 9.0451C13.2371 9.01838 13.2839 9.0451 13.3107 9.11858C13.3509 9.25885 13.3977 9.39244 13.4245 9.53271C13.5851 10.2274 13.6118 10.9421 13.672 11.6501H13.6787Z" fill="#8DBE3D"/>
</svg>
