<svg width="23" height="22" viewBox="0 0 23 22" fill="none" xmlns="http://www.w3.org/2000/svg">
<path id="Vector 144" d="M9.12496 7.99845L11.3145 2.13166C11.4694 1.71665 12.0495 1.69812 12.2306 2.1024L14.8843 8.02771C14.9591 8.19475 15.1199 8.30692 15.3026 8.31941L21.3451 8.73243C21.7981 8.76339 21.9742 9.33668 21.6167 9.61656L16.8867 13.3199C16.7362 13.4377 16.6669 13.6316 16.7087 13.8181L18.0329 19.7316C18.1264 20.1493 17.6819 20.4809 17.3082 20.2723L11.9783 17.2971C11.8283 17.2134 11.6455 17.2134 11.4955 17.2971L6.26389 20.2175C5.87569 20.4341 5.42068 20.0693 5.54788 19.6433L7.27727 13.851C7.33771 13.6486 7.2631 13.4301 7.09147 13.307L1.96672 9.6289C1.58866 9.35757 1.75957 8.76185 2.22398 8.73222L8.69246 8.31956C8.88732 8.30713 9.05669 8.18138 9.12496 7.99845Z" fill="#F0EA0D" fill-opacity="0.6" stroke="#F0EA0D" stroke-width="1.98119" stroke-linecap="round"/>
</svg>
