<svg width="54" height="54" viewBox="0 0 54 54" fill="none" xmlns="http://www.w3.org/2000/svg">
<rect width="54" height="54" rx="27" fill="#D9D9D9"/>
<path d="M38.1063 39.4952C38.1063 37.5578 38.1063 36.589 37.8672 35.8008C37.3288 34.026 35.9399 32.6371 34.1651 32.0987C33.3769 31.8596 32.4081 31.8596 30.4707 31.8596H23.5292C21.5917 31.8596 20.623 31.8596 19.8347 32.0987C18.0599 32.6371 16.6711 34.026 16.1327 35.8008C15.8936 36.589 15.8936 37.5578 15.8936 39.4952M33.2473 20.7532C33.2473 24.2035 30.4502 27.0005 26.9999 27.0005C23.5496 27.0005 20.7526 24.2035 20.7526 20.7532C20.7526 17.3029 23.5496 14.5059 26.9999 14.5059C30.4502 14.5059 33.2473 17.3029 33.2473 20.7532Z" stroke="white" stroke-width="2" stroke-linecap="round" stroke-linejoin="round"/>
</svg>
