<svg width="26" height="46" viewBox="0 0 26 46" fill="none" xmlns="http://www.w3.org/2000/svg">
<g id="walk man">
<path id="Vector" d="M14.4925 30.8484C15.1392 31.7921 15.4691 32.8045 15.786 33.8328C16.4824 36.0929 17.2103 38.3451 17.9408 40.5946C18.1084 41.1074 18.1686 41.615 18.1346 42.1489C18.0639 43.246 18.0141 44.343 17.9513 45.4373C17.9408 45.6197 17.9827 45.7308 18.1765 45.7678C18.9436 45.9158 22.8633 46.1405 23.9577 45.8814C24.5337 45.744 25.081 45.4796 25.6387 45.2602C25.7644 45.21 25.8743 45.1149 26 45.0355C25.7774 44.6681 25.4449 44.5624 25.081 44.5095C24.5337 44.4276 23.9839 44.3535 23.4419 44.2478C23.0413 44.1685 22.8083 43.9438 22.7035 43.4944C22.4365 42.3657 22.0699 41.2608 21.8002 40.132C21.6169 39.3654 21.5462 38.5751 21.3944 37.8005C21.1718 36.6718 20.8943 35.5536 20.6927 34.4223C20.5539 33.6478 20.5775 32.8389 20.402 32.0723C19.9046 29.8915 19.2317 27.7609 18.3886 25.6885C18.0953 24.9694 17.7602 24.2637 17.5219 23.5235C17.3151 22.8812 17.2103 22.2071 17.0768 21.5436C17.0611 21.4669 17.137 21.3718 17.1684 21.2872C17.2417 21.3189 17.3281 21.3374 17.391 21.385C17.9094 21.7656 18.2105 22.3075 18.5064 22.8626C18.6373 23.1085 18.7001 23.4733 19.1165 23.4416C19.1636 23.4389 19.2395 23.5314 19.2683 23.5975C19.4071 23.9068 19.5537 24.2134 19.6558 24.5359C19.7815 24.9324 20.0721 25.2232 20.4754 25.2682C20.6377 25.2867 20.8 25.2867 20.965 25.2919C21.1692 25.2946 21.3761 25.2919 21.5855 25.2919C21.7112 24.8108 21.6405 24.38 21.4703 23.9755C21.2792 23.5235 21.0592 23.0794 20.8131 22.6565C20.2633 21.7128 19.6506 20.814 19.2526 19.7752C18.9855 19.0746 18.5378 18.4482 18.187 17.7794C18.1058 17.6234 18.0587 17.4331 18.0482 17.2533C18.0011 16.3334 17.9696 15.4109 17.9356 14.491C17.9225 14.1288 17.8832 13.764 17.9042 13.4045C17.9696 12.3445 17.7549 11.3348 17.425 10.3355C17.281 9.89938 17.1737 9.45001 17.082 9.00063C17.0218 8.70457 16.9799 8.40057 17.1737 8.1098C17.2287 8.02785 17.192 7.82431 17.1265 7.7265C16.9197 7.41987 16.6893 7.12381 16.4432 6.84625C16.2913 6.67443 16.2651 6.55283 16.3751 6.33343C16.5767 5.93163 16.8569 5.74924 17.3072 5.70165C18.0482 5.62235 18.0482 5.59063 18.0901 4.85048C18.1032 4.64165 18.0744 4.43018 18.1006 4.22663C18.132 3.97551 18.1686 3.71381 18.2629 3.48384C18.3519 3.26972 18.3571 3.10847 18.2 2.94458C17.823 2.54807 17.6188 2.07754 17.4669 1.54622C17.1946 0.594593 16.5243 0.0791286 15.5294 0.0130434C14.6601 -0.0451116 13.8406 0.0791286 13.1205 0.631601C12.0601 1.44313 11.9187 2.94458 12.822 3.93322C13.1362 4.27686 13.4321 4.63636 13.7882 5.04609C13.1834 5.16504 13.165 5.62235 13.0367 6.02679C12.9844 6.19597 12.8561 6.37837 12.7094 6.47089C11.8035 7.05244 11.073 7.81109 10.4551 8.68606C9.96022 9.38656 9.77955 10.1954 9.67482 11.0308C9.56485 11.9163 9.5439 12.7966 9.67744 13.6874C9.72719 14.0257 9.59103 14.3985 9.51772 14.75C9.29255 15.8312 9.03857 16.8965 8.5568 17.9116C8.07241 18.9319 7.95197 20.0659 7.97292 21.1894C7.98601 21.956 7.8996 22.6935 7.69275 23.4257C7.63253 23.6398 7.70061 23.8883 7.68752 24.1209C7.68228 24.2319 7.6561 24.3641 7.59064 24.4434C6.98319 25.1783 7.03294 25.9554 7.44402 26.7432C7.51733 26.8833 7.69799 26.9679 7.83676 27.0657C7.88651 27.1 7.95982 27.1027 8.02266 27.1212C8.17976 27.1714 8.25046 27.404 8.50181 27.2666C8.86838 27.063 9.25589 26.8991 9.38942 26.455C9.46012 26.2145 9.48892 25.9607 9.52558 25.7122C9.65125 24.8056 9.77431 23.8962 9.89738 22.9869C9.93403 22.9816 9.96807 22.9763 10.0047 22.971C10.044 23.0794 10.1016 23.1851 10.1173 23.2962C10.2535 24.1949 10.3818 25.0963 10.5127 25.9951C10.5205 26.0506 10.5127 26.1088 10.5362 26.159C10.8164 26.8516 10.5912 27.4807 10.3294 28.1204C9.77955 29.4685 9.26374 30.8299 8.71914 32.1807C8.64058 32.3789 8.50967 32.5692 8.36566 32.7252C6.60354 34.61 4.83356 36.4868 3.06358 38.3662C2.41424 39.0562 1.58423 39.4765 0.762083 39.8994C-0.0967236 40.3435 -0.225023 40.4651 0.353624 41.4669C0.495014 41.7128 0.604984 42.1304 0.772556 42.3604C0.93751 42.5878 1.21767 43.283 1.48474 43.7138C1.82773 44.2637 3.46156 45.2999 4.09781 45.3078C4.58744 45.3131 5.07706 45.3184 5.56669 45.3052C5.67927 45.3025 5.78924 45.2206 5.89921 45.1756C5.84423 45.0646 5.82066 44.914 5.73426 44.8532C5.38864 44.6126 5.04041 44.3668 4.66337 44.1817C4.05068 43.883 3.88573 43.6028 4.04545 42.934C4.06378 42.86 4.13185 42.7913 4.19207 42.7384C4.38583 42.564 4.60838 42.4186 4.77596 42.2256C5.43315 41.4643 6.05107 40.666 6.72922 39.9232C7.80796 38.7469 8.91289 37.597 10.0257 36.455C10.6515 35.8127 11.2929 35.1836 11.9685 34.5994C12.932 33.7693 13.4871 32.6644 14.0867 31.5832C14.2124 31.3559 14.3354 31.1259 14.482 30.8563L14.4925 30.8484Z" fill="#C1C1C1"/>
</g>
</svg>
