<svg width="30" height="50" viewBox="0 0 30 50" fill="none" xmlns="http://www.w3.org/2000/svg">
<g id="walk man" filter="url(#filter0_d_855_4747)">
<path id="Vector" d="M16.4925 31.8484C17.1392 32.7921 17.4691 33.8045 17.786 34.8328C18.4824 37.0929 19.2103 39.3451 19.9408 41.5946C20.1084 42.1074 20.1686 42.615 20.1346 43.1489C20.0639 44.246 20.0141 45.343 19.9513 46.4373C19.9408 46.6197 19.9827 46.7308 20.1765 46.7678C20.9436 46.9158 24.8633 47.1405 25.9577 46.8814C26.5337 46.744 27.081 46.4796 27.6387 46.2602C27.7644 46.21 27.8743 46.1149 28 46.0355C27.7774 45.6681 27.4449 45.5624 27.081 45.5095C26.5337 45.4276 25.9839 45.3535 25.4419 45.2478C25.0413 45.1685 24.8083 44.9438 24.7035 44.4944C24.4365 43.3657 24.0699 42.2608 23.8002 41.132C23.6169 40.3654 23.5462 39.5751 23.3944 38.8005C23.1718 37.6718 22.8943 36.5536 22.6927 35.4223C22.5539 34.6478 22.5775 33.8389 22.402 33.0723C21.9046 30.8915 21.2317 28.7609 20.3886 26.6885C20.0953 25.9694 19.7602 25.2637 19.5219 24.5235C19.3151 23.8812 19.2103 23.2071 19.0768 22.5436C19.0611 22.4669 19.137 22.3718 19.1684 22.2872C19.2417 22.3189 19.3281 22.3374 19.391 22.385C19.9094 22.7656 20.2105 23.3075 20.5064 23.8626C20.6373 24.1085 20.7001 24.4733 21.1165 24.4416C21.1636 24.4389 21.2395 24.5314 21.2683 24.5975C21.4071 24.9068 21.5537 25.2134 21.6558 25.5359C21.7815 25.9324 22.0721 26.2232 22.4754 26.2682C22.6377 26.2867 22.8 26.2867 22.965 26.2919C23.1692 26.2946 23.3761 26.2919 23.5855 26.2919C23.7112 25.8108 23.6405 25.38 23.4703 24.9755C23.2792 24.5235 23.0592 24.0794 22.8131 23.6565C22.2633 22.7128 21.6506 21.814 21.2526 20.7752C20.9855 20.0746 20.5378 19.4482 20.187 18.7794C20.1058 18.6234 20.0587 18.4331 20.0482 18.2533C20.0011 17.3334 19.9696 16.4109 19.9356 15.491C19.9225 15.1288 19.8832 14.764 19.9042 14.4045C19.9696 13.3445 19.7549 12.3348 19.425 11.3355C19.281 10.8994 19.1737 10.45 19.082 10.0006C19.0218 9.70457 18.9799 9.40057 19.1737 9.1098C19.2287 9.02785 19.192 8.82431 19.1265 8.7265C18.9197 8.41987 18.6893 8.12381 18.4432 7.84625C18.2913 7.67443 18.2651 7.55283 18.3751 7.33343C18.5767 6.93163 18.8569 6.74924 19.3072 6.70165C20.0482 6.62235 20.0482 6.59063 20.0901 5.85048C20.1032 5.64165 20.0744 5.43018 20.1006 5.22663C20.132 4.97551 20.1686 4.71381 20.2629 4.48384C20.3519 4.26972 20.3571 4.10847 20.2 3.94458C19.823 3.54807 19.6188 3.07754 19.4669 2.54622C19.1946 1.59459 18.5243 1.07913 17.5294 1.01304C16.6601 0.954888 15.8406 1.07913 15.1205 1.6316C14.0601 2.44313 13.9187 3.94458 14.822 4.93322C15.1362 5.27686 15.4321 5.63636 15.7882 6.04609C15.1834 6.16504 15.165 6.62235 15.0367 7.02679C14.9844 7.19597 14.8561 7.37837 14.7094 7.47089C13.8035 8.05244 13.073 8.81109 12.4551 9.68606C11.9602 10.3866 11.7796 11.1954 11.6748 12.0308C11.5648 12.9163 11.5439 13.7966 11.6774 14.6874C11.7272 15.0257 11.591 15.3985 11.5177 15.75C11.2925 16.8312 11.0386 17.8965 10.5568 18.9116C10.0724 19.9319 9.95197 21.0659 9.97292 22.1894C9.98601 22.956 9.8996 23.6935 9.69275 24.4257C9.63253 24.6398 9.70061 24.8883 9.68752 25.1209C9.68228 25.2319 9.6561 25.3641 9.59064 25.4434C8.98319 26.1783 9.03294 26.9554 9.44402 27.7432C9.51733 27.8833 9.69799 27.9679 9.83676 28.0657C9.88651 28.1 9.95982 28.1027 10.0227 28.1212C10.1798 28.1714 10.2505 28.404 10.5018 28.2666C10.8684 28.063 11.2559 27.8991 11.3894 27.455C11.4601 27.2145 11.4889 26.9607 11.5256 26.7122C11.6513 25.8056 11.7743 24.8962 11.8974 23.9869C11.934 23.9816 11.9681 23.9763 12.0047 23.971C12.044 24.0794 12.1016 24.1851 12.1173 24.2962C12.2535 25.1949 12.3818 26.0963 12.5127 26.9951C12.5205 27.0506 12.5127 27.1088 12.5362 27.159C12.8164 27.8516 12.5912 28.4807 12.3294 29.1204C11.7796 30.4685 11.2637 31.8299 10.7191 33.1807C10.6406 33.3789 10.5097 33.5692 10.3657 33.7252C8.60354 35.61 6.83356 37.4868 5.06358 39.3662C4.41424 40.0562 3.58423 40.4765 2.76208 40.8994C1.90328 41.3435 1.77498 41.4651 2.35362 42.4669C2.49501 42.7128 2.60498 43.1304 2.77256 43.3604C2.93751 43.5878 3.21767 44.283 3.48474 44.7138C3.82773 45.2637 5.46156 46.2999 6.09781 46.3078C6.58744 46.3131 7.07706 46.3184 7.56669 46.3052C7.67927 46.3025 7.78924 46.2206 7.89921 46.1756C7.84423 46.0646 7.82066 45.914 7.73426 45.8532C7.38864 45.6126 7.04041 45.3668 6.66337 45.1817C6.05068 44.883 5.88573 44.6028 6.04545 43.934C6.06378 43.86 6.13185 43.7913 6.19207 43.7384C6.38583 43.564 6.60838 43.4186 6.77596 43.2256C7.43315 42.4643 8.05107 41.666 8.72922 40.9232C9.80796 39.7469 10.9129 38.597 12.0257 37.455C12.6515 36.8127 13.2929 36.1836 13.9685 35.5994C14.932 34.7693 15.4871 33.6644 16.0867 32.5832C16.2124 32.3559 16.3354 32.1259 16.482 31.8563L16.4925 31.8484Z" fill="#555555"/>
</g>
<defs>
<filter id="filter0_d_855_4747" x="0" y="0" width="30" height="50" filterUnits="userSpaceOnUse" color-interpolation-filters="sRGB">
<feFlood flood-opacity="0" result="BackgroundImageFix"/>
<feColorMatrix in="SourceAlpha" type="matrix" values="0 0 0 0 0 0 0 0 0 0 0 0 0 0 0 0 0 0 127 0" result="hardAlpha"/>
<feOffset dy="1"/>
<feGaussianBlur stdDeviation="1"/>
<feComposite in2="hardAlpha" operator="out"/>
<feColorMatrix type="matrix" values="0 0 0 0 0 0 0 0 0 0 0 0 0 0 0 0 0 0 0.25 0"/>
<feBlend mode="normal" in2="BackgroundImageFix" result="effect1_dropShadow_855_4747"/>
<feBlend mode="normal" in="SourceGraphic" in2="effect1_dropShadow_855_4747" result="shape"/>
</filter>
</defs>
</svg>
