<svg width="44" height="38" viewBox="0 0 44 38" fill="none" xmlns="http://www.w3.org/2000/svg">
<path d="M3.16866 13.7962C2.12566 6.79314 7.55094 0.5 14.6312 0.5H29.5405C36.564 0.5 41.973 6.69768 41.023 13.6566L39.1359 27.4787C38.3521 33.22 33.4481 37.5 27.6535 37.5H16.6898C10.9487 37.5 6.07299 33.2966 5.22726 27.6182L3.16866 13.7962Z" fill="#FBFFF4" stroke="#8DBE3D"/>
<path d="M15.4988 12.6659L13.0059 5.59144C21.3605 2.573 28.1654 4.33376 30.5236 5.59144L28.2328 12.6659C22.8427 10.7794 17.4976 11.8799 15.4988 12.6659Z" fill="white" stroke="#8DBE3D"/>
<path d="M16.5767 6.06438L16.7788 7.41189M18.3284 5.7275L18.4632 7.07502M20.0802 5.52537V6.87289M21.8994 5.32324V6.73814M23.5838 5.52537V6.73814M25.2682 5.7275L25.2008 6.94026M27.0199 6.06438L26.8178 7.27714" stroke="#8DBE3D"/>
<path d="M21.4951 10.5778L21.832 7.61328L22.1689 10.5778H21.4951Z" fill="#8DBE3D"/>
</svg>
