<svg width="76" height="67" viewBox="0 0 76 67" fill="none" xmlns="http://www.w3.org/2000/svg">
<path d="M2.56026 13.7962C1.51726 6.79315 6.94254 0.5 14.0228 0.5H61.5828C68.6063 0.5 74.0154 6.69768 73.0653 13.6566L67.219 56.4787C66.4352 62.22 61.5312 66.5 55.7365 66.5H20.4006C14.6595 66.5 9.78374 62.2966 8.93801 56.6182L2.56026 13.7962Z" fill="#C1C1C1" fill-opacity="0.3" stroke="#C1C1C1"/>
<path d="M26.2538 22.3328L21.8584 9.85944C36.5889 4.53746 48.5871 7.64195 52.7449 9.85944L48.7059 22.3328C39.2024 19.0066 29.778 20.9469 26.2538 22.3328Z" fill="white" stroke="#C1C1C1"/>
<path d="M28.1543 10.6915L28.5107 13.0674M31.2429 10.0975L31.4805 12.4734M34.3316 9.74115V12.117M37.539 9.38477V11.8794M40.5089 9.74115V11.8794M43.4788 10.0975L43.36 12.2358M46.5674 10.6915L46.211 12.8298" stroke="#C1C1C1"/>
<path d="M36.8262 18.6508L37.4201 13.4238L38.0141 18.6508H36.8262Z" fill="#C1C1C1"/>
</svg>
