<svg width="56" height="56" viewBox="0 0 56 56" fill="none" xmlns="http://www.w3.org/2000/svg">
<rect width="56" height="56" rx="28" fill="#A4ED2E"/>
<path d="M37 37.0003H29M18.5 37.5003L24.0493 35.366C24.4042 35.2295 24.5817 35.1612 24.7477 35.0721C24.8952 34.9929 25.0358 34.9015 25.168 34.7989C25.3169 34.6834 25.4514 34.5489 25.7203 34.28L37 23.0003C38.1046 21.8957 38.1046 20.1049 37 19.0003C35.8955 17.8957 34.1046 17.8957 33 19.0003L21.7203 30.28C21.4514 30.5489 21.3169 30.6834 21.2014 30.8323C21.0988 30.9645 21.0074 31.1051 20.9282 31.2526C20.8391 31.4186 20.7708 31.5961 20.6343 31.951L18.5 37.5003ZM18.5 37.5003L20.5581 32.1493C20.7054 31.7663 20.779 31.5749 20.9053 31.4872C21.0157 31.4105 21.1523 31.3816 21.2843 31.4068C21.4353 31.4356 21.5804 31.5807 21.8705 31.8708L24.1296 34.1299C24.4197 34.4199 24.5647 34.565 24.5936 34.716C24.6188 34.848 24.5898 34.9846 24.5131 35.095C24.4254 35.2213 24.234 35.2949 23.8511 35.4422L18.5 37.5003Z" stroke="white" stroke-width="2" stroke-linecap="round" stroke-linejoin="round"/>
</svg>
