<svg width="24" height="24" viewBox="0 0 24 24" fill="none" xmlns="http://www.w3.org/2000/svg">
<g id="calendar">
<g id="Icon">
<path d="M3 7C3 5.89543 3.89543 5 5 5H19C20.1046 5 21 5.89543 21 7V19C21 20.1046 20.1046 21 19 21H5C3.89543 21 3 20.1046 3 19V7Z" fill="#EDFBD5"/>
<path d="M8 7V3M16 7V3M7 11H17M5 21H19C20.1046 21 21 20.1046 21 19V7C21 5.89543 20.1046 5 19 5H5C3.89543 5 3 5.89543 3 7V19C3 20.1046 3.89543 21 5 21Z" stroke="#8DBE3D" stroke-width="2" stroke-linecap="round" stroke-linejoin="round"/>
</g>
</g>
</svg>
