<svg width="376" height="86" viewBox="0 0 376 86" fill="none" xmlns="http://www.w3.org/2000/svg">
<g filter="url(#filter0_d_2937_2374)">
<path fill-rule="evenodd" clip-rule="evenodd" d="M156.096 15.1968C153.626 11.1464 149.56 8 144.816 8H17C10.9249 8 6 12.9249 6 19V67C6 73.0751 10.9249 78 17 78H355C361.075 78 366 73.0751 366 67V19C366 12.9249 361.075 8 355 8H227.184C222.44 8 218.374 11.1464 215.904 15.1968C209.759 25.2728 198.665 32 186 32C173.335 32 162.241 25.2729 156.096 15.1968Z" fill="white"/>
</g>
<defs>
<filter id="filter0_d_2937_2374" x="0" y="0" width="376" height="86" filterUnits="userSpaceOnUse" color-interpolation-filters="sRGB">
<feFlood flood-opacity="0" result="BackgroundImageFix"/>
<feColorMatrix in="SourceAlpha" type="matrix" values="0 0 0 0 0 0 0 0 0 0 0 0 0 0 0 0 0 0 127 0" result="hardAlpha"/>
<feOffset dx="2"/>
<feGaussianBlur stdDeviation="4"/>
<feComposite in2="hardAlpha" operator="out"/>
<feColorMatrix type="matrix" values="0 0 0 0 0 0 0 0 0 0 0 0 0 0 0 0 0 0 0.1 0"/>
<feBlend mode="normal" in2="BackgroundImageFix" result="effect1_dropShadow_2937_2374"/>
<feBlend mode="normal" in="SourceGraphic" in2="effect1_dropShadow_2937_2374" result="shape"/>
</filter>
</defs>
</svg>
